<svg width="89" height="102" viewBox="0 0 89 102" fill="none" xmlns="http://www.w3.org/2000/svg">
<rect width="89" height="102" fill="#F5F5F5"/>
<g id="Group 427319727">
<g id="Group 427319725">
<path id="Polygon 21" d="M0.999995 76.636L0.999999 28.2187C0.999999 27.6083 1.32428 27.0438 1.8516 26.7364L22.6287 14.6217L43.3857 2.51869C43.9198 2.20724 44.5802 2.20724 45.1143 2.51869L86.6484 26.7364C87.1757 27.0439 87.5 27.6083 87.5 28.2187L87.5 52.4598L87.5 76.636C87.5 77.2682 87.1524 77.8492 86.5953 78.1481L45.0612 100.43C44.5546 100.702 43.9455 100.702 43.4388 100.43L1.90473 78.1481C1.34763 77.8492 0.999995 77.2682 0.999995 76.636Z" fill="white" stroke="#D9D9D9" stroke-width="2"/>
</g>
<g id="Group 427319708">
<path id="Vector" d="M40.149 52.0498L40.149 52.0498L42.3603 54.9989L44.7925 52.5667C45.2169 52.1423 45.9066 52.1423 46.331 52.5667C46.7554 52.9911 46.7554 53.6809 46.331 54.1053L43.0111 57.4252C42.8064 57.6299 42.53 57.743 42.2428 57.743H42.2417L40.149 52.0498ZM40.149 52.0498C39.9403 51.7715 39.6058 51.6363 39.2778 51.6363C38.9499 51.6363 38.6158 51.7715 38.408 52.05C38.408 52.05 38.408 52.05 38.408 52.05L36.1968 54.9989L33.7647 52.5667C33.3403 52.1423 32.6505 52.1423 32.2261 52.5667C31.8017 52.9911 31.8017 53.6809 32.2261 54.1053L35.5457 57.4249C35.5458 57.425 35.5458 57.425 35.5459 57.4251C35.7674 57.6487 36.0646 57.7668 36.3932 57.7408C36.7061 57.7168 36.9954 57.5604 37.1848 57.3078C37.1848 57.3078 37.1848 57.3078 37.1848 57.3078L39.2786 54.5174L41.3723 57.3078C41.5613 57.5598 41.8485 57.7189 42.1644 57.7408L40.149 52.0498Z" fill="#019ED1" stroke="#019ED1" stroke-width="0.2"/>
<g id="Group 851">
<path id="Vector_2" d="M51.9043 29.7584L51.9043 29.7583C52.2154 29.4473 52.3091 28.9794 52.1394 28.5723C51.9717 28.1653 51.5735 27.9 51.1341 27.9H39.2771C38.6765 27.9 38.1891 28.3874 38.1891 28.9881V41.8331C38.1891 42.4337 38.6765 42.9211 39.2771 42.9211C39.8778 42.9211 40.3652 42.4337 40.3652 41.8331V37.9808H51.1341C51.5734 37.9808 51.9718 37.7156 52.1375 37.3082C52.3071 36.9012 52.2134 36.4334 51.9023 36.1224L48.7203 32.9404L51.9043 29.7584ZM46.4135 33.7106L48.5074 35.8046H40.3652V30.0762H48.5076L46.4135 32.1721C46.4134 32.1721 46.4134 32.1721 46.4134 32.1721C45.9891 32.5965 45.9891 33.2863 46.4135 33.7106Z" fill="#019ED1" stroke="#019ED1" stroke-width="0.2"/>
<path id="Vector_3" d="M20.0324 71.9167L20.0323 71.9169C19.8496 72.254 19.8561 72.6629 20.0519 72.9937C20.2479 73.3246 20.6047 73.5269 20.9877 73.5269H56.5585C56.9415 73.5269 57.2984 73.3246 57.4943 72.9937C57.6901 72.6629 57.6966 72.254 57.5139 71.9169L57.5138 71.9167L39.7284 39.3102C39.7284 39.3102 39.7284 39.3102 39.7284 39.3102C39.5341 38.9538 39.1482 38.7823 38.7731 38.7823C38.3981 38.7823 38.0121 38.9538 37.8178 39.3102C37.8178 39.3102 37.8178 39.3102 37.8178 39.3102L20.0324 71.9167ZM22.8201 71.3508L38.7731 42.1043L54.7241 71.3508H22.8201Z" fill="#019ED1" stroke="#019ED1" stroke-width="0.2"/>
<path id="Vector_4" d="M55.635 55.05L64.5998 71.3515H56.56C55.9593 71.3515 55.4719 71.8389 55.4719 72.4395C55.4719 73.0402 55.9593 73.5276 56.56 73.5276H66.4407C66.826 73.5276 67.1807 73.3251 67.3784 72.9926C67.5767 72.6612 67.5806 72.252 67.396 71.9152L67.3959 71.9151L56.5271 52.1537L55.635 55.05ZM55.635 55.05L51.9527 62.6695L51.9527 62.6695C51.6916 63.2092 51.045 63.4376 50.4992 63.1745M55.635 55.05L50.4992 63.1745M50.4992 63.1745C49.9573 62.9133 49.7309 62.2626 49.9941 61.7208M50.4992 63.1745L49.9941 61.7208M49.9941 61.7208C49.9941 61.7207 49.9942 61.7207 49.9942 61.7207L54.5946 52.2037L54.5948 52.2034C54.773 51.8382 55.1384 51.6009 55.5455 51.59L55.553 51.5898L55.553 51.5901C55.9507 51.6091 56.3287 51.7922 56.5271 52.1536L49.9941 61.7208Z" fill="#019ED1" stroke="#019ED1" stroke-width="0.2"/>
</g>
</g>
</g>
</svg>
