<svg width="89" height="102" viewBox="0 0 89 102" fill="none" xmlns="http://www.w3.org/2000/svg">
<g id="Group 427319726">
<g id="Group 427319722">
<path id="Polygon 20" d="M0.999995 75.7788L0.999999 27.3615C0.999999 26.7511 1.32428 26.1867 1.8516 25.8792L22.6287 13.7645L43.3857 1.66151C43.9198 1.35006 44.5802 1.35006 45.1143 1.66151L86.6484 25.8792C87.1757 26.1867 87.5 26.7511 87.5 27.3616L87.5 51.6026L87.5 75.7788C87.5 76.411 87.1524 76.992 86.5953 77.2909L45.0612 99.5728C44.5546 99.8446 43.9455 99.8446 43.4388 99.5728L1.90473 77.2909C1.34763 76.992 0.999995 76.411 0.999995 75.7788Z" fill="white" stroke="#D9D9D9" stroke-width="2"/>
</g>
<g id="Group">
<path id="Vector" d="M47.4436 45.0293L47.4436 45.0293C46.1527 44.8356 45.2068 45.4218 44.5366 45.8371L44.5302 45.8411L44.5302 45.8411C44.3817 45.9332 44.2194 46.0335 44.078 46.1068C44.0072 46.1435 43.9447 46.1718 43.8939 46.1888C43.8686 46.1973 43.8482 46.2023 43.8326 46.2045C43.8173 46.2067 43.8109 46.2056 43.8104 46.2055C43.1143 46.025 42.6124 45.7519 42.2565 45.4082C41.901 45.0649 41.6855 44.6457 41.5705 44.1634C41.3388 43.192 41.5161 41.9744 41.7797 40.633L41.7797 40.6329L41.7812 40.6251C41.8706 40.1702 41.9458 39.7873 41.9765 39.452C42.8877 39.2012 43.8467 39.0672 44.8366 39.0672C50.2711 39.0671 54.7802 43.1063 55.5193 48.3402C54.8904 48.5039 54.0514 48.6676 53.2343 48.6604C52.3772 48.6529 51.564 48.4576 51.0339 47.9004C50.7622 47.6143 50.5284 47.3173 50.2994 47.026L50.2208 47.0878L50.2994 47.026L50.294 47.0192C49.6525 46.2035 48.9011 45.2482 47.4436 45.0293ZM36.1795 43.4241C37.0515 42.2537 38.1548 41.2653 39.421 40.5274C39.2036 41.6588 38.9683 43.1228 39.2553 44.5341L39.2553 44.5341C39.6637 46.5413 41.0434 47.9008 43.2256 48.4663C44.2843 48.7406 45.114 48.2265 45.7502 47.8324L45.7603 47.8261L45.7603 47.8261C46.3404 47.4665 46.683 47.2764 47.097 47.3388L47.0971 47.3388C47.6082 47.4155 47.8688 47.7133 48.4636 48.4697L48.4636 48.4697L48.466 48.4728C48.7122 48.7857 48.994 49.1438 49.3412 49.5094L49.3413 49.5094C50.4198 50.643 51.8994 50.9888 53.3034 50.9888C54.1168 50.9887 54.9089 50.8727 55.5907 50.724C55.4911 51.9695 55.1791 53.156 54.6909 54.2471C54.0003 53.7259 53.1884 53.128 52.7471 52.8567L52.6948 52.9419L52.7471 52.8567C51.1949 51.9025 49.7151 51.6225 48.3561 52.0474C47.2938 52.3794 46.4727 53.0939 45.8331 53.916C45.1936 54.7379 44.7315 55.6726 44.3884 56.454L44.4799 56.4942L44.3884 56.4541C43.6384 58.1625 42.2541 59.1083 40.8437 59.879C40.1166 59.5883 39.4283 59.2206 38.7887 58.7861L38.8555 58.7482L38.8555 58.7481L38.861 58.745C39.4901 58.388 40.1744 57.9997 40.6979 57.4982C41.2262 56.9922 41.5973 56.365 41.5867 55.5327C41.5759 54.6849 41.0286 54.0168 40.4798 53.3468L40.4676 53.332C39.99 52.7488 39.4669 52.108 39.2612 51.3723C39.0419 50.5882 38.9236 49.6755 38.9107 48.6591C38.8843 46.5561 37.8629 44.6385 36.1795 43.4241ZM38.6613 54.8119L38.6613 54.8119C38.7781 54.9544 38.9139 55.1202 39.0285 55.2715C39.0857 55.3471 39.1368 55.418 39.1771 55.4797C39.2087 55.528 39.2315 55.5676 39.2458 55.5976C39.2304 55.6454 39.1855 55.7128 39.0989 55.7984C39.0017 55.8945 38.8671 55.9992 38.711 56.1069C38.3991 56.322 38.0148 56.5402 37.703 56.7172L37.703 56.7172L37.6983 56.7199C37.4405 56.8663 37.1768 57.016 36.9173 57.1752C35.1369 55.2505 34.0478 52.678 34.0478 49.8559C34.0478 48.2879 34.384 46.7971 34.9882 45.4517C35.9705 46.24 36.5598 47.4122 36.5759 48.6885C36.5913 49.9039 36.7378 51.0188 37.0125 52.0011C37.351 53.2123 38.0813 54.1038 38.6576 54.8074L38.6613 54.8119ZM44.8366 36.7318C37.5999 36.7318 31.7125 42.6193 31.7125 49.8559C31.7125 57.0926 37.5999 62.9801 44.8366 62.9801C52.0734 62.9801 57.9608 57.0927 57.9608 49.8559C57.9608 42.6191 52.0734 36.7318 44.8366 36.7318ZM46.5268 57.3927L46.4353 57.3525L46.5268 57.3927C46.7841 56.8067 47.1173 56.1184 47.5384 55.5295C47.9606 54.9391 48.4626 54.4608 49.053 54.2763C49.7211 54.0675 50.5489 54.2467 51.5243 54.8462C51.9019 55.0784 52.7513 55.7068 53.5021 56.2763C51.534 58.9256 48.3823 60.6447 44.8366 60.6447C44.557 60.6447 44.2799 60.634 44.0056 60.613C44.9299 59.8738 45.8911 58.8406 46.5268 57.3927Z" fill="#019ED1" stroke="#019ED1" stroke-width="0.2"/>
<path id="Vector_2" d="M17.615 49.1816L17.615 49.1816C17.3283 49.5861 17.3283 50.1275 17.615 50.5319C17.7406 50.7091 20.691 54.8421 25.4926 59.0326C28.3268 61.506 31.2195 63.4814 34.0909 64.9028C37.726 66.7024 41.3401 67.6165 44.8322 67.6165C48.3243 67.6165 51.9384 66.7023 55.5735 64.9028C58.4448 63.4814 61.3376 61.506 64.1718 59.0326C68.9732 54.8422 71.9236 50.7094 72.0493 50.5319C72.3362 50.1274 72.3362 49.5861 72.0496 49.1816C71.9243 49.0048 68.9738 44.8715 64.172 40.6809C61.3378 38.2075 58.445 36.2322 55.5737 34.8107C51.9386 33.0111 48.3245 32.097 44.8324 32.097C41.3403 32.097 37.7262 33.0112 34.0911 34.8107C31.2197 36.2322 28.327 38.2075 25.4928 40.6809C20.6909 44.8715 17.7404 49.0048 17.615 49.1816ZM62.6364 57.273C58.4418 60.9337 51.9568 65.2812 44.8323 65.2812C37.7226 65.2812 31.2502 60.9506 27.0639 57.3042C23.5711 54.262 21.0518 51.1827 20.027 49.8564C21.0466 48.5358 23.5469 45.4786 27.0282 42.4405C31.2227 38.7798 37.7077 34.4324 44.8323 34.4324C51.9419 34.4324 58.4144 38.7629 62.6007 42.4093C66.0934 45.4515 68.6127 48.5306 69.6375 49.8571C68.6179 51.1777 66.1176 54.2349 62.6364 57.273Z" fill="#019ED1" stroke="#019ED1" stroke-width="0.2"/>
<path id="Vector_3" d="M44.8333 30.0128C45.4782 30.0128 46.001 29.4899 46.001 28.8451V27.21C46.001 26.5652 45.4782 26.0423 44.8333 26.0423C44.1884 26.0423 43.6656 26.5652 43.6656 27.21V28.8452C43.6656 29.49 44.1884 30.0128 44.8333 30.0128Z" fill="#019ED1" stroke="#019ED1" stroke-width="0.2"/>
<path id="Vector_4" d="M28.9609 34.3775L28.9609 34.3775C29.1889 34.6054 29.4879 34.7195 29.7865 34.7195C30.0852 34.7195 30.3843 34.6054 30.6122 34.3775C31.0682 33.9215 31.0682 33.1822 30.6122 32.7261L30.6122 32.7261L29.4559 31.5698L29.4559 31.5698C28.9999 31.1139 28.2606 31.1139 27.8045 31.5698L27.8045 31.5698C27.3485 32.0258 27.3485 32.7651 27.8045 33.2212L27.8045 33.2212L28.9609 34.3775Z" fill="#019ED1" stroke="#019ED1" stroke-width="0.2"/>
<path id="Vector_5" d="M61.8543 31.5698L61.8543 31.5698C62.3102 32.0259 62.3102 32.7652 61.8543 33.2212L60.698 34.3775C60.4701 34.6054 60.171 34.7195 59.8723 34.7195C59.5737 34.7195 59.2746 34.6055 59.0467 34.3775L61.8543 31.5698ZM61.8543 31.5698C61.3983 31.1139 60.6589 31.1139 60.203 31.5698L60.203 31.5698M61.8543 31.5698L60.203 31.5698M60.203 31.5698L59.0467 32.7261M60.203 31.5698L59.0467 32.7261M59.0467 32.7261C58.5907 33.182 58.5907 33.9214 59.0467 34.3775L59.0467 32.7261Z" fill="#019ED1" stroke="#019ED1" stroke-width="0.2"/>
<path id="Vector_6" d="M44.8333 69.6996C44.1884 69.6996 43.6656 70.2224 43.6656 70.8672V72.5024C43.6656 73.1471 44.1884 73.67 44.8333 73.67C45.4782 73.67 46.001 73.1471 46.001 72.5024V70.8672C46.001 70.2224 45.4782 69.6996 44.8333 69.6996Z" fill="#019ED1" stroke="#019ED1" stroke-width="0.2"/>
<path id="Vector_7" d="M60.6981 65.3364L60.6981 65.3364C60.2421 64.8805 59.5028 64.8805 59.0467 65.3364L59.0467 65.3364C58.5907 65.7924 58.5907 66.5317 59.0467 66.9878L59.0467 66.9878L60.203 68.1441L60.203 68.1441C60.431 68.372 60.7299 68.4861 61.0286 68.4861C61.3273 68.4861 61.6264 68.372 61.8543 68.1441C62.3102 67.6881 62.3102 66.9488 61.8543 66.4928C61.8543 66.4928 61.8543 66.4928 61.8543 66.4928L60.6981 65.3364Z" fill="#019ED1" stroke="#019ED1" stroke-width="0.2"/>
<path id="Vector_8" d="M27.8045 68.1441L27.8045 68.1441C28.0325 68.372 28.3315 68.4861 28.6301 68.4861C28.9288 68.4861 29.2279 68.372 29.4558 68.1441L30.6121 66.9878C31.0681 66.5318 31.068 65.7925 30.6121 65.3364L30.6121 65.3364C30.1561 64.8805 29.4167 64.8805 28.9608 65.3365L27.8045 66.4928C27.3485 66.9487 27.3485 67.6881 27.8045 68.1441Z" fill="#019ED1" stroke="#019ED1" stroke-width="0.2"/>
</g>
</g>
</svg>
