<svg width="53" height="53" viewBox="0 0 53 53" fill="none" xmlns="http://www.w3.org/2000/svg">
<path d="M11.6367 30.8281C10.011 28.1658 9.15381 25.1054 9.16019 21.9859C9.16019 12.5089 16.9212 4.8281 26.4935 4.8281C36.0659 4.8281 43.8269 12.5089 43.8269 21.9859C43.8332 25.1054 42.9761 28.1658 41.3504 30.8281M32.9935 41.6614L32.7119 43.0633C32.4085 44.5951 32.2547 45.3599 31.9102 45.9666C31.3793 46.9016 30.5198 47.6059 29.4987 47.9426C28.8379 48.1614 28.0535 48.1614 26.4935 48.1614C24.9335 48.1614 24.1492 48.1614 23.4884 47.9448C22.4669 47.6076 21.6073 46.9024 21.0769 45.9666C20.7324 45.3599 20.5785 44.5951 20.2752 43.0633L19.9935 41.6614M16.49 37.5404C16.2907 36.9424 16.191 36.6413 16.2019 36.3986C16.2141 36.1477 16.2988 35.9057 16.4457 35.7019C16.5926 35.4981 16.7954 35.3412 17.0295 35.2503C17.2549 35.1614 17.5712 35.1614 18.1995 35.1614H34.7875C35.418 35.1614 35.7322 35.1614 35.9575 35.2481C36.192 35.3392 36.395 35.4964 36.5419 35.7006C36.6888 35.9049 36.7733 36.1473 36.7852 36.3986C36.796 36.6413 36.6964 36.9403 36.497 37.5404C36.1287 38.6476 35.9445 39.2023 35.6607 39.6508C35.067 40.5881 34.1364 41.262 33.0607 41.5336C32.545 41.6614 31.9644 41.6614 30.8009 41.6614H22.1862C21.0227 41.6614 20.4399 41.6614 19.9264 41.5314C18.851 41.2604 17.9204 40.5873 17.3264 39.6508C17.0425 39.2023 16.8584 38.6476 16.49 37.5404Z" stroke="#019ED1" stroke-width="3" stroke-linecap="round" stroke-linejoin="round"/>
<path d="M27.1602 26.4957L23.9947 16.7002C23.8851 16.3915 23.6811 16.1251 23.4115 15.9388C23.142 15.7525 22.8207 15.6558 22.4932 15.6624C22.1656 15.6558 21.8443 15.7525 21.5748 15.9388C21.3053 16.1251 21.1013 16.3915 20.9917 16.7002L17.8262 26.4957M32.9928 15.6624V26.4957M18.9918 23.2457H25.9923" stroke="#019ED1" stroke-width="3" stroke-linecap="round" stroke-linejoin="round"/>
</svg>
