<svg width="40" height="40" viewBox="0 0 40 40" fill="none" xmlns="http://www.w3.org/2000/svg">
<g id="material-symbols-light:web-traffic">
<g id="Group 427319710">
<path id="Vector" d="M36.1867 38.399L25.6383 27.853L23.4018 34.7452L18.1953 17.5801L35.5456 22.7842L28.6796 25.2296L39.0167 35.5691L36.1867 38.399Z" fill="#019ED1"/>
<path id="Vector_2" d="M0.664062 21.7799V19.4058H7.78653V21.7799H0.664062ZM7.91473 35.2319L6.23383 33.5225L11.2196 28.5368L12.9289 30.2177L7.91473 35.2319ZM11.2196 12.6489L6.23383 7.6632L7.91473 5.95381L12.9289 10.968L11.2196 12.6489ZM19.9327 8.72207V1.59961H22.3069V8.72207H19.9327ZM31.0176 12.6489L29.3082 10.968L34.3225 5.95618L36.0034 7.63471L31.0176 12.6489Z" fill="#001632"/>
</g>
</g>
</svg>
