<svg width="68" height="76" viewBox="0 0 68 76" fill="none" xmlns="http://www.w3.org/2000/svg">
<path d="M-2.73092e-06 56.0336L-6.0171e-06 18.4443C-6.0496e-06 18.0726 0.206216 17.7315 0.535417 17.5588L33.5354 0.245694C33.8263 0.0930667 34.1737 0.0930672 34.4646 0.245695L67.4646 17.5588C67.7938 17.7315 68 18.0726 68 18.4443L68 37.2271L68 56.0336C68 56.3928 67.8074 56.7244 67.4954 56.9023L34.4953 75.7195C34.1883 75.8946 33.8117 75.8946 33.5047 75.7195L17 66.3082L0.504651 56.9023C0.192632 56.7244 -2.69952e-06 56.3928 -2.73092e-06 56.0336Z" fill="#001632"/>
<path d="M0.499994 18.4443L0.499997 56.0336C0.499997 56.2132 0.596311 56.379 0.752324 56.4679L17.2477 65.8739L33.7523 75.2851C33.9058 75.3727 34.0942 75.3727 34.2477 75.2851L67.2477 56.4679C67.4037 56.379 67.5 56.2132 67.5 56.0336L67.5 37.2271L67.5 18.4443C67.5 18.2584 67.3969 18.0879 67.2323 18.0015L34.2323 0.688459C34.0868 0.612146 33.9132 0.612145 33.7677 0.688459L0.767709 18.0016C0.603105 18.0879 0.499994 18.2584 0.499994 18.4443Z" stroke="white" stroke-opacity="0.1"/>
<path d="M48.1563 39.7988C47.8874 38.8506 47.3169 38.0158 46.5311 37.4208C45.7453 36.8259 44.7871 36.5031 43.8015 36.5015H37.7756V32.6505C37.7743 31.6574 37.3792 30.7053 36.6769 30.003C35.9747 29.3007 35.0226 28.9056 34.0294 28.9043H32.4431C32.1763 28.9108 31.9225 29.0214 31.7361 29.2125C31.5497 29.4036 31.4454 29.66 31.4455 29.9269V33.5484C31.41 35.3145 30.7569 37.0125 29.5998 38.3472L27.375 40.5819L28.8316 42.0285L31.0464 39.7788L31.0963 39.7239C32.5827 38.007 33.4133 35.8192 33.4408 33.5484V30.9495H34.0194C34.4706 30.9495 34.9032 31.1287 35.2222 31.4477C35.5412 31.7667 35.7204 32.1994 35.7204 32.6505V37.5391C35.7268 37.8017 35.8339 38.0518 36.0197 38.2375C36.2054 38.4232 36.4555 38.5304 36.7181 38.5367H43.8015C44.3463 38.5392 44.8754 38.72 45.3077 39.0515C45.7401 39.383 46.0521 39.8469 46.1959 40.3724C46.2715 40.6534 46.2715 40.9494 46.1959 41.2304L44.6994 48.5832C44.6545 48.8426 44.5198 49.6407 42.8837 49.6407H27.9536V51.6809H42.9186C45.0536 51.6809 46.4503 50.6833 46.7446 48.9523L48.2012 41.6594C48.3495 41.0443 48.334 40.4011 48.1563 39.7938V39.7988Z" fill="#019ED1"/>
<path d="M28.0062 37.1426H21.0226C20.7557 37.1425 20.4993 37.2468 20.3082 37.4332C20.1171 37.6196 20.0065 37.8734 20 38.1402V52.0027C20 52.1359 20.0266 52.2677 20.0783 52.3904C20.1299 52.5131 20.2057 52.6242 20.301 52.7172C20.3963 52.8101 20.5092 52.8831 20.6332 52.9317C20.7571 52.9804 20.8895 53.0037 21.0226 53.0004H28.0062C28.2708 53.0004 28.5246 52.8953 28.7117 52.7082C28.8988 52.5211 29.0039 52.2673 29.0039 52.0027V38.1652C29.0039 37.9006 28.8988 37.6468 28.7117 37.4597C28.5246 37.2726 28.2708 37.1675 28.0062 37.1675V37.1426ZM26.9836 50.9702H22.0452V39.1878H26.9836V50.9702Z" fill="#019ED1"/>
<path d="M34.6461 21.002C34.3835 21.0083 34.1334 21.1154 33.9477 21.3012C33.7619 21.4869 33.6548 21.737 33.6484 21.9996V26.2596C33.6484 26.5302 33.7559 26.7896 33.9472 26.981C34.1385 27.1723 34.398 27.2797 34.6685 27.2797C34.9391 27.2797 35.1986 27.1723 35.3899 26.981C35.5812 26.7896 35.6887 26.5302 35.6887 26.2596V22.0246C35.6887 21.76 35.5835 21.5062 35.3964 21.3191C35.2094 21.132 34.9556 21.0269 34.691 21.0269L34.6461 21.002Z" fill="#019ED1"/>
<path d="M28.9139 26.0994L25.2376 23.4457C25.0179 23.2869 24.7443 23.2219 24.4767 23.2649C24.2092 23.308 23.9697 23.4555 23.8109 23.6751C23.6521 23.8947 23.5871 24.1684 23.6302 24.436C23.6732 24.7035 23.8207 24.943 24.0404 25.1018L27.7167 27.7556C27.9364 27.9143 28.21 27.9793 28.4776 27.9363C28.7451 27.8933 28.9846 27.7457 29.1434 27.5261C29.3022 27.3065 29.3672 27.0328 29.3241 26.7652C29.2811 26.4977 29.1336 26.2582 28.9139 26.0994Z" fill="#019ED1"/>
<path d="M45.1447 23.6715C44.9842 23.454 44.7445 23.3084 44.4775 23.2664C44.2104 23.2244 43.9376 23.2893 43.718 23.447L40.0716 26.1058C39.8798 26.2229 39.7331 26.4013 39.6554 26.6121C39.5776 26.823 39.5733 27.0539 39.6432 27.2675C39.713 27.481 39.8529 27.6648 40.0402 27.7889C40.2275 27.9131 40.4513 27.9704 40.6752 27.9515C40.8916 27.9506 41.1025 27.8826 41.2788 27.7569L44.9202 25.0982C45.0312 25.0213 45.1255 24.9227 45.1973 24.8084C45.2691 24.694 45.317 24.5663 45.338 24.4329C45.359 24.2995 45.3526 24.1633 45.3194 24.0324C45.2862 23.9015 45.2268 23.7788 45.1447 23.6715Z" fill="#019ED1"/>
</svg>
