<svg width="53" height="53" viewBox="0 0 53 53" fill="none" xmlns="http://www.w3.org/2000/svg">
<g id="fluent:arrow-growth-20-filled">
<path id="Vector" d="M37.9432 5.96874C37.9432 5.40101 38.1687 4.85654 38.5701 4.4551C38.9716 4.05365 39.5161 3.82813 40.0838 3.82812H47.2192C47.7869 3.82812 48.3314 4.05365 48.7328 4.4551C49.1342 4.85654 49.3598 5.40101 49.3598 5.96874V13.1041C49.3598 13.6718 49.1342 14.2163 48.7328 14.6178C48.3314 15.0192 47.7869 15.2447 47.2192 15.2447C46.6514 15.2447 46.107 15.0192 45.7055 14.6178C45.3041 14.2163 45.0785 13.6718 45.0785 13.1041V11.1347L32.3205 23.8928C31.9191 24.2937 31.3751 24.5188 30.8078 24.5188C30.2405 24.5188 29.6965 24.2937 29.2951 23.8928L22.2454 16.843L10.2008 28.8876C10.0049 29.0979 9.76855 29.2666 9.50597 29.3835C9.24339 29.5005 8.95994 29.5635 8.67252 29.5685C8.38509 29.5736 8.0996 29.5207 7.83305 29.4131C7.56651 29.3054 7.32438 29.1452 7.12111 28.9419C6.91784 28.7386 6.7576 28.4965 6.64994 28.2299C6.54227 27.9634 6.4894 27.6779 6.49447 27.3905C6.49954 27.1031 6.56246 26.8196 6.67945 26.557C6.79645 26.2945 6.96514 26.0581 7.17545 25.8622L20.7327 12.3049C21.134 11.9041 21.6781 11.6789 22.2454 11.6789C22.8126 11.6789 23.3567 11.9041 23.7581 12.3049L30.8078 19.3547L42.0532 8.10935H40.0838C39.5161 8.10935 38.9716 7.88382 38.5701 7.48238C38.1687 7.08094 37.9432 6.53646 37.9432 5.96874ZM8.68815 38.0779C9.25587 38.0779 9.80035 38.3034 10.2018 38.7049C10.6032 39.1063 10.8288 39.6508 10.8288 40.2185V47.3539C10.8288 47.9216 10.6032 48.4661 10.2018 48.8675C9.80035 49.269 9.25587 49.4945 8.68815 49.4945C8.12042 49.4945 7.57595 49.269 7.17451 48.8675C6.77306 48.4661 6.54754 47.9216 6.54754 47.3539V40.2185C6.54754 39.6508 6.77306 39.1063 7.17451 38.7049C7.57595 38.3034 8.12042 38.0779 8.68815 38.0779ZM22.2454 31.6561C22.2454 31.0884 22.0198 30.5439 21.6184 30.1424C21.2169 29.741 20.6725 29.5155 20.1047 29.5155C19.537 29.5155 18.9925 29.741 18.5911 30.1424C18.1897 30.5439 17.9641 31.0884 17.9641 31.6561V47.3539C17.9641 47.9216 18.1897 48.4661 18.5911 48.8675C18.9925 49.269 19.537 49.4945 20.1047 49.4945C20.6725 49.4945 21.2169 49.269 21.6184 48.8675C22.0198 48.4661 22.2454 47.9216 22.2454 47.3539V31.6561ZM31.5213 35.2238C32.0891 35.2238 32.6335 35.4493 33.035 35.8507C33.4364 36.2522 33.662 36.7966 33.662 37.3644V47.3539C33.662 47.9216 33.4364 48.4661 33.035 48.8675C32.6335 49.269 32.0891 49.4945 31.5213 49.4945C30.9536 49.4945 30.4091 49.269 30.0077 48.8675C29.6063 48.4661 29.3807 47.9216 29.3807 47.3539V37.3644C29.3807 36.7966 29.6063 36.2522 30.0077 35.8507C30.4091 35.4493 30.9536 35.2238 31.5213 35.2238ZM45.0785 25.9478C45.0785 25.3801 44.853 24.8356 44.4516 24.4341C44.0501 24.0327 43.5057 23.8072 42.9379 23.8072C42.3702 23.8072 41.8257 24.0327 41.4243 24.4341C41.0229 24.8356 40.7973 25.3801 40.7973 25.9478V47.3539C40.7973 47.9216 41.0229 48.4661 41.4243 48.8675C41.8257 49.269 42.3702 49.4945 42.9379 49.4945C43.5057 49.4945 44.0501 49.269 44.4516 48.8675C44.853 48.4661 45.0785 47.9216 45.0785 47.3539V25.9478Z" fill="#019ED1"/>
</g>
</svg>
