<svg width="49" height="49" viewBox="0 0 49 49" fill="none" xmlns="http://www.w3.org/2000/svg">
<g clip-path="url(#clip0_222_277)">
<path d="M22.5561 17.4321C22.4166 17.2926 22.2511 17.182 22.0688 17.1065C21.8866 17.031 21.6913 16.9922 21.4941 16.9922C21.2969 16.9922 21.1016 17.031 20.9193 17.1065C20.7371 17.182 20.5715 17.2926 20.4321 17.4321C20.2926 17.5715 20.182 17.7371 20.1065 17.9193C20.031 18.1016 19.9922 18.2969 19.9922 18.4941C19.9922 18.6913 20.031 18.8866 20.1065 19.0688C20.182 19.2511 20.2926 19.4166 20.4321 19.5561L23.8731 22.9941L20.4321 26.4321C20.2926 26.5715 20.182 26.7371 20.1065 26.9193C20.031 27.1016 19.9922 27.2969 19.9922 27.4941C19.9922 27.6913 20.031 27.8866 20.1065 28.0688C20.182 28.2511 20.2926 28.4166 20.4321 28.5561C20.5715 28.6955 20.7371 28.8062 20.9193 28.8817C21.1016 28.9571 21.2969 28.996 21.4941 28.996C21.6913 28.996 21.8866 28.9571 22.0688 28.8817C22.2511 28.8062 22.4166 28.6955 22.5561 28.5561L25.9941 25.1151L29.4321 28.5561C29.7137 28.8377 30.0958 28.996 30.4941 28.996C30.8924 28.996 31.2744 28.8377 31.5561 28.5561C31.8377 28.2744 31.996 27.8924 31.996 27.4941C31.996 27.0958 31.8377 26.7137 31.5561 26.4321L28.1151 22.9941L31.5561 19.5561C31.8377 19.2744 31.996 18.8924 31.996 18.4941C31.996 18.0958 31.8377 17.7137 31.5561 17.4321C31.2744 17.1504 30.8924 16.9922 30.4941 16.9922C30.0958 16.9922 29.7137 17.1504 29.4321 17.4321L25.9941 20.8731L22.5561 17.4321Z" fill="#019ED1"/>
<path d="M1.99414 3.49414C1.59632 3.49414 1.21478 3.65218 0.93348 3.93348C0.652176 4.21478 0.494141 4.59632 0.494141 4.99414C0.494141 5.39197 0.652176 5.7735 0.93348 6.0548C1.21478 6.33611 1.59632 6.49414 1.99414 6.49414H5.32414L6.52714 11.3151L11.0211 35.2701C11.0855 35.6139 11.2679 35.9243 11.5369 36.1478C11.8058 36.3713 12.1444 36.4938 12.4941 36.4941H15.4941C13.9028 36.4941 12.3767 37.1263 11.2515 38.2515C10.1263 39.3767 9.49414 40.9028 9.49414 42.4941C9.49414 44.0854 10.1263 45.6116 11.2515 46.7368C12.3767 47.862 13.9028 48.4941 15.4941 48.4941C17.0854 48.4941 18.6116 47.862 19.7368 46.7368C20.862 45.6116 21.4941 44.0854 21.4941 42.4941C21.4941 40.9028 20.862 39.3767 19.7368 38.2515C18.6116 37.1263 17.0854 36.4941 15.4941 36.4941H36.4941C34.9028 36.4941 33.3767 37.1263 32.2515 38.2515C31.1263 39.3767 30.4941 40.9028 30.4941 42.4941C30.4941 44.0854 31.1263 45.6116 32.2515 46.7368C33.3767 47.862 34.9028 48.4941 36.4941 48.4941C38.0854 48.4941 39.6116 47.862 40.7368 46.7368C41.862 45.6116 42.4941 44.0854 42.4941 42.4941C42.4941 40.9028 41.862 39.3767 40.7368 38.2515C39.6116 37.1263 38.0854 36.4941 36.4941 36.4941H39.4941C39.8438 36.4938 40.1824 36.3713 40.4514 36.1478C40.7204 35.9243 40.9028 35.6139 40.9671 35.2701L45.4671 11.2701C45.5077 11.0537 45.5 10.8309 45.4447 10.6177C45.3895 10.4045 45.2879 10.2061 45.1473 10.0366C45.0067 9.86702 44.8305 9.73054 44.6312 9.63679C44.4319 9.54305 44.2144 9.49434 43.9941 9.49414H9.16414L7.94914 4.63114C7.86817 4.30649 7.68098 4.01824 7.41733 3.81221C7.15369 3.60619 6.82873 3.49423 6.49414 3.49414H1.99414ZM13.7391 33.4941L9.80014 12.4941H42.1881L38.2491 33.4941H13.7391ZM18.4941 42.4941C18.4941 43.2898 18.1781 44.0529 17.6155 44.6155C17.0529 45.1781 16.2898 45.4941 15.4941 45.4941C14.6985 45.4941 13.9354 45.1781 13.3728 44.6155C12.8102 44.0529 12.4941 43.2898 12.4941 42.4941C12.4941 41.6985 12.8102 40.9354 13.3728 40.3728C13.9354 39.8102 14.6985 39.4941 15.4941 39.4941C16.2898 39.4941 17.0529 39.8102 17.6155 40.3728C18.1781 40.9354 18.4941 41.6985 18.4941 42.4941ZM39.4941 42.4941C39.4941 43.2898 39.1781 44.0529 38.6155 44.6155C38.0528 45.1781 37.2898 45.4941 36.4941 45.4941C35.6985 45.4941 34.9354 45.1781 34.3728 44.6155C33.8102 44.0529 33.4941 43.2898 33.4941 42.4941C33.4941 41.6985 33.8102 40.9354 34.3728 40.3728C34.9354 39.8102 35.6985 39.4941 36.4941 39.4941C37.2898 39.4941 38.0528 39.8102 38.6155 40.3728C39.1781 40.9354 39.4941 41.6985 39.4941 42.4941Z" fill="#019ED1"/>
</g>
<defs>
<clipPath id="clip0_222_277">
<rect width="48" height="48" fill="white" transform="translate(0.494141 0.494141)"/>
</clipPath>
</defs>
</svg>
