<svg width="40" height="40" viewBox="0 0 40 40" fill="none" xmlns="http://www.w3.org/2000/svg">
<g id="fluent:convert-range-20-filled">
<path id="Vector" d="M10 4C8.93913 4 7.92172 4.42143 7.17157 5.17157C6.42143 5.92172 6 6.93913 6 8V12C6 13.0609 6.42143 14.0783 7.17157 14.8284C7.92172 15.5786 8.93913 16 10 16H26C27.0609 16 28.0783 15.5786 28.8284 14.8284C29.5786 14.0783 30 13.0609 30 12V8C30 6.93913 29.5786 5.92172 28.8284 5.17157C28.0783 4.42143 27.0609 4 26 4H10Z" fill="#001632"/>
<path id="Vector_2" d="M35 14C35.2652 14 35.5196 14.1054 35.7071 14.2929C35.8946 14.4804 36 14.7348 36 15V19C36 19.6566 35.8707 20.3068 35.6194 20.9134C35.3681 21.52 34.9998 22.0712 34.5355 22.5355C34.0712 22.9998 33.52 23.3681 32.9134 23.6194C32.3068 23.8707 31.6566 24 31 24H27.414L29.708 26.292C29.8958 26.4798 30.0013 26.7344 30.0013 27C30.0013 27.2656 29.8958 27.5202 29.708 27.708C29.5202 27.8958 29.2656 28.0013 29 28.0013C28.7344 28.0013 28.4798 27.8958 28.292 27.708L24.292 23.708C24.1989 23.6151 24.125 23.5048 24.0746 23.3833C24.0242 23.2618 23.9982 23.1315 23.9982 23C23.9982 22.8685 24.0242 22.7382 24.0746 22.6167C24.125 22.4952 24.1989 22.3849 24.292 22.292L28.292 18.292C28.4798 18.1042 28.7344 17.9987 29 17.9987C29.2656 17.9987 29.5202 18.1042 29.708 18.292C29.8958 18.4798 30.0013 18.7344 30.0013 19C30.0013 19.2656 29.8958 19.5202 29.708 19.708L27.414 22H31C31.7956 22 32.5587 21.6839 33.1213 21.1213C33.6839 20.5587 34 19.7956 34 19V15C34 14.7348 34.1054 14.4804 34.2929 14.2929C34.4804 14.1054 34.7348 14 35 14ZM23.758 20H10C8.93913 20 7.92172 20.4214 7.17157 21.1716C6.42143 21.9217 6 22.9391 6 24V32C6 33.0609 6.42143 34.0783 7.17157 34.8284C7.92172 35.5786 8.93913 36 10 36H26C27.0609 36 28.0783 35.5786 28.8284 34.8284C29.5786 34.0783 30 33.0609 30 32V29.83C29.4661 30.0184 28.8898 30.0519 28.3377 29.9266C27.7856 29.8013 27.2803 29.5224 26.88 29.122L22.88 25.122C22.6012 24.8434 22.3801 24.5126 22.2292 24.1485C22.0783 23.7844 22.0006 23.3941 22.0006 23C22.0006 22.6059 22.0783 22.2156 22.2292 21.8515C22.3801 21.4874 22.6012 21.1566 22.88 20.878L23.758 20ZM13 28C13 27.7348 13.1054 27.4804 13.2929 27.2929C13.4804 27.1054 13.7348 27 14 27H22C22.2652 27 22.5196 27.1054 22.7071 27.2929C22.8946 27.4804 23 27.7348 23 28C23 28.2652 22.8946 28.5196 22.7071 28.7071C22.5196 28.8946 22.2652 29 22 29H14C13.7348 29 13.4804 28.8946 13.2929 28.7071C13.1054 28.5196 13 28.2652 13 28Z" fill="#019ED1"/>
</g>
</svg>
