<svg width="53" height="53" viewBox="0 0 53 53" fill="none" xmlns="http://www.w3.org/2000/svg">
<path d="M32.5615 17.8268L35.1615 20.4268L20.4281 35.1602L17.8281 32.5602L32.5615 17.8268ZM9.16146 9.16016H43.8281C46.2331 9.16016 48.1615 11.0885 48.1615 13.4935V22.1602C47.0122 22.1602 45.91 22.6167 45.0973 23.4294C44.2847 24.242 43.8281 25.3442 43.8281 26.4935C43.8281 27.6428 44.2847 28.745 45.0973 29.5576C45.91 30.3703 47.0122 30.8268 48.1615 30.8268V39.4935C48.1615 41.8985 46.2331 43.8268 43.8281 43.8268H9.16146C8.01219 43.8268 6.90999 43.3703 6.09733 42.5576C5.28467 41.745 4.82813 40.6428 4.82812 39.4935V30.8268C7.23312 30.8268 9.16146 28.8985 9.16146 26.4935C9.16146 25.3442 8.70491 24.242 7.89225 23.4294C7.0796 22.6167 5.9774 22.1602 4.82812 22.1602V13.4935C4.82812 12.3442 5.28467 11.242 6.09733 10.4294C6.90999 9.6167 8.01219 9.16016 9.16146 9.16016ZM9.16146 13.4935V18.9968C10.4781 19.756 11.5716 20.8486 12.3318 22.1646C13.0921 23.4806 13.4924 24.9736 13.4924 26.4935C13.4924 28.0133 13.0921 29.5064 12.3318 30.8224C11.5716 32.1384 10.4781 33.231 9.16146 33.9902V39.4935H43.8281V33.9902C42.5115 33.231 41.418 32.1384 40.6577 30.8224C39.8975 29.5064 39.4972 28.0133 39.4972 26.4935C39.4972 24.9736 39.8975 23.4806 40.6577 22.1646C41.418 20.8486 42.5115 19.756 43.8281 18.9968V13.4935H9.16146ZM21.0781 17.8268C22.8765 17.8268 24.3281 19.2785 24.3281 21.0768C24.3281 22.8752 22.8765 24.3268 21.0781 24.3268C19.2798 24.3268 17.8281 22.8752 17.8281 21.0768C17.8281 19.2785 19.2798 17.8268 21.0781 17.8268ZM31.9115 28.6602C33.7098 28.6602 35.1615 30.1118 35.1615 31.9102C35.1615 33.7085 33.7098 35.1602 31.9115 35.1602C30.1131 35.1602 28.6615 33.7085 28.6615 31.9102C28.6615 30.1118 30.1131 28.6602 31.9115 28.6602Z" fill="#019ED1"/>
</svg>
