<svg width="53" height="53" viewBox="0 0 53 53" fill="none" xmlns="http://www.w3.org/2000/svg">
<path d="M24.3281 9.16208V22.1621C24.3281 24.5562 19.9623 26.4954 14.5781 26.4954C9.19396 26.4954 4.82812 24.5562 4.82812 22.1621V9.16208" stroke="#019ED1" stroke-width="4" stroke-linecap="round" stroke-linejoin="round"/>
<path d="M24.3281 15.6614C24.3281 18.0556 19.9623 19.9948 14.5781 19.9948C9.19396 19.9948 4.82812 18.0556 4.82812 15.6614M35.1615 6.99476H41.6615C42.8107 6.99476 43.9129 7.45131 44.7256 8.26397C45.5382 9.07662 45.9948 10.1788 45.9948 11.3281V17.8281M17.8281 45.9948H11.3281C10.1789 45.9948 9.07665 45.5382 8.264 44.7256C7.45134 43.9129 6.99479 42.8107 6.99479 41.6614V35.1614M24.3281 9.16143C24.3281 11.5556 19.9623 13.4948 14.5781 13.4948C9.19396 13.4948 4.82812 11.5556 4.82812 9.16143C4.82812 6.76726 9.19396 4.82809 14.5781 4.82809C19.9623 4.82809 24.3281 6.76726 24.3281 9.16143Z" stroke="#019ED1" stroke-width="4" stroke-linecap="round" stroke-linejoin="round"/>
<path d="M38.4108 37.3274C41.4023 37.3274 43.8275 34.9023 43.8275 31.9108C43.8275 28.9192 41.4023 26.4941 38.4108 26.4941C35.4193 26.4941 32.9941 28.9192 32.9941 31.9108C32.9941 34.9023 35.4193 37.3274 38.4108 37.3274Z" stroke="#019ED1" stroke-width="4" stroke-linecap="round" stroke-linejoin="round"/>
<path d="M48.1621 48.1621H28.6621C28.6621 46.8817 28.9143 45.6138 29.4043 44.4309C29.8943 43.248 30.6124 42.1732 31.5178 41.2678C32.4232 40.3624 33.498 39.6442 34.6809 39.1543C35.8639 38.6643 37.1317 38.4121 38.4121 38.4121C39.6925 38.4121 40.9604 38.6643 42.1433 39.1543C43.3262 39.6442 44.401 40.3624 45.3064 41.2678C46.2118 42.1732 46.93 43.248 47.4199 44.4309C47.9099 45.6138 48.1621 46.8817 48.1621 48.1621Z" stroke="#019ED1" stroke-width="4" stroke-linecap="round" stroke-linejoin="round"/>
</svg>
