<svg width="53" height="53" viewBox="0 0 53 53" fill="none" xmlns="http://www.w3.org/2000/svg">
<path d="M9.74716 47.1146H43.2407C46.9411 47.1146 49.2477 44.4589 49.2477 41.1077C49.2477 40.1067 48.9867 39.0834 48.4426 38.1483L31.6633 8.91966C30.5305 6.93902 28.5507 5.87302 26.5051 5.87302C24.4808 5.87302 22.4788 6.93902 21.3246 8.91966L4.54531 38.1697C4.02025 39.0599 3.74233 40.0741 3.74023 41.1077C3.74023 44.4598 6.06909 47.1146 9.74716 47.1146ZM9.79081 43.6974C8.26702 43.6974 7.26509 42.4569 7.26509 41.1077C7.26509 40.7158 7.33102 40.2589 7.54923 39.8021L24.3062 10.5734C24.7854 9.74702 25.6564 9.35516 26.5051 9.35516C27.3538 9.35516 28.1802 9.72473 28.6594 10.5734L45.4173 39.8234C45.6346 40.2599 45.7432 40.7158 45.7432 41.1077C45.7432 42.4569 44.6986 43.6984 43.1971 43.6984L9.79081 43.6974ZM26.5051 38.7138C29.7254 38.7138 32.3811 36.189 32.3811 32.9687C32.3811 31.119 31.4664 29.3779 30.5964 27.7455L27.0492 21.1944C27.0016 21.0903 26.9249 21.002 26.8284 20.9402C26.7319 20.8785 26.6197 20.8458 26.5051 20.8462C26.2432 20.8462 26.1132 20.9762 25.9823 21.2158L22.4129 27.7455C21.5215 29.3779 20.6282 31.119 20.6282 32.9687C20.6282 36.189 23.2839 38.7138 26.5051 38.7138Z" fill="#019ED1"/>
</svg>
