<svg width="53" height="53" viewBox="0 0 53 53" fill="none" xmlns="http://www.w3.org/2000/svg">
<path d="M32.4396 4.80409C32.0296 4.60366 31.5716 4.52234 31.1177 4.56938C30.6638 4.61643 30.2323 4.78994 29.8721 5.07019L15.9073 15.9313H6.99414C5.9167 15.9313 4.88339 16.3593 4.12152 17.1212C3.35965 17.883 2.93164 18.9163 2.93164 19.9938V32.9938C2.93164 34.0712 3.35965 35.1045 4.12152 35.8664C4.88339 36.6283 5.9167 37.0563 6.99414 37.0563H15.9073L29.8721 47.9174C30.2323 48.1977 30.6639 48.3712 31.1178 48.4183C31.5717 48.4653 32.0297 48.384 32.4397 48.1836C32.8497 47.9831 33.1952 47.6716 33.4369 47.2845C33.6785 46.8973 33.8066 46.4501 33.8066 45.9938V6.99378C33.8066 6.53742 33.6785 6.09023 33.4368 5.70312C33.1951 5.316 32.8496 5.00451 32.4396 4.80409ZM7.80664 20.8063H14.3066V32.1813H7.80664V20.8063ZM28.9316 41.0111L19.1816 33.4244V19.5632L28.9316 11.9785V41.0111ZM50.9687 29.6463C51.1954 29.873 51.3753 30.1422 51.498 30.4384C51.6207 30.7347 51.6838 31.0522 51.6838 31.3728C51.6838 31.6935 51.6207 32.011 51.498 32.3073C51.3753 32.6035 51.1954 32.8727 50.9687 33.0994C50.7419 33.3261 50.4728 33.506 50.1765 33.6287C49.8803 33.7514 49.5628 33.8146 49.2421 33.8146C48.9215 33.8146 48.6039 33.7514 48.3077 33.6287C48.0115 33.506 47.7423 33.3261 47.5155 33.0994L44.3691 29.9469L41.2187 33.0994C40.7608 33.5573 40.1397 33.8146 39.4921 33.8146C38.8445 33.8146 38.2235 33.5573 37.7655 33.0994C37.3076 32.6415 37.0504 32.0204 37.0504 31.3728C37.0504 30.7253 37.3076 30.1042 37.7655 29.6463L40.916 26.4938L37.7635 23.3433C37.3056 22.8854 37.0484 22.2643 37.0484 21.6167C37.0484 20.9692 37.3056 20.3481 37.7635 19.8902C38.2214 19.4323 38.8425 19.175 39.4901 19.175C40.1377 19.175 40.7587 19.4323 41.2166 19.8902L44.3691 23.0407L47.5196 19.8902C47.9775 19.4323 48.5986 19.175 49.2462 19.175C49.8938 19.175 50.5148 19.4323 50.9727 19.8902C51.4306 20.3481 51.6879 20.9692 51.6879 21.6167C51.6879 22.2643 51.4306 22.8854 50.9727 23.3433L47.8223 26.4938L50.9687 29.6463Z" fill="#019ED1"/>
</svg>
