<svg width="68" height="76" viewBox="0 0 68 76" fill="none" xmlns="http://www.w3.org/2000/svg">
<path d="M-2.73092e-06 56.0336L-6.0171e-06 18.4443C-6.0496e-06 18.0726 0.206216 17.7315 0.535417 17.5588L33.5354 0.245694C33.8263 0.0930667 34.1737 0.0930672 34.4646 0.245695L67.4646 17.5588C67.7938 17.7315 68 18.0726 68 18.4443L68 37.2271L68 56.0336C68 56.3928 67.8074 56.7244 67.4954 56.9023L34.4953 75.7195C34.1883 75.8946 33.8117 75.8946 33.5047 75.7195L17 66.3082L0.504651 56.9023C0.192632 56.7244 -2.69952e-06 56.3928 -2.73092e-06 56.0336Z" fill="#001632"/>
<path d="M0.499994 18.4443L0.499997 56.0336C0.499997 56.2132 0.596311 56.379 0.752324 56.4679L17.2477 65.8739L33.7523 75.2851C33.9058 75.3727 34.0942 75.3727 34.2477 75.2851L67.2477 56.4679C67.4037 56.379 67.5 56.2132 67.5 56.0336L67.5 37.2271L67.5 18.4443C67.5 18.2584 67.3969 18.0879 67.2323 18.0015L34.2323 0.688459C34.0868 0.612146 33.9132 0.612145 33.7677 0.688459L0.767709 18.0016C0.603105 18.0879 0.499994 18.2584 0.499994 18.4443Z" stroke="white" stroke-opacity="0.1"/>
<path d="M46.1917 37.2676C45.75 36.8259 45.198 36.5683 44.6459 36.4947C44.7564 35.6482 44.4987 34.8018 43.8731 34.1393C43.4683 33.7345 42.9162 33.4769 42.3642 33.3665C42.401 33.2192 42.401 33.1088 42.401 32.9616C42.401 32.2256 42.1065 31.4895 41.5913 30.9743C41.3337 30.7166 41.0392 30.5326 40.708 30.3854L43.6891 27.4044C44.7932 26.3003 44.7932 24.5337 43.6891 23.4296C42.585 22.3255 40.8184 22.3255 39.7143 23.4296L29.2991 33.8449C28.8942 33.0352 28.2318 31.8943 27.3853 30.8638C26.8333 30.1646 26.0972 29.5021 25.2139 28.8765C23.9258 27.9564 22.2329 27.9564 20.9816 28.8765C19.9511 29.6125 19.6935 30.9743 20.3927 32.0415L21.9385 34.4337C22.7481 35.6851 23.153 37.1572 23.1162 38.6661L23.0058 43.2297C23.0058 43.6713 22.8217 44.0761 22.4905 44.4074L20.3927 46.5051C20.0615 46.8364 20.0615 47.3884 20.3927 47.7565C20.5767 47.9405 20.7976 48.0141 21.0184 48.0141C21.2392 48.0141 21.46 47.9405 21.644 47.7565L23.7418 45.6587C24.3675 45.033 24.7355 44.1866 24.7723 43.2665L24.8827 38.7029C24.9195 36.8627 24.4043 35.0226 23.4106 33.4769L21.8649 31.0847C21.6808 30.827 21.7544 30.4958 22.0121 30.3118C22.6745 29.8334 23.5578 29.8334 24.1834 30.3118C24.9195 30.827 25.5452 31.4159 25.9868 31.9679C27.3117 33.6241 28.195 35.6851 28.195 35.6851C28.3054 35.9427 28.563 36.1635 28.8206 36.2003C29.1151 36.2739 29.4095 36.1635 29.6303 35.9427L40.9288 24.6441C41.3337 24.2393 41.9961 24.2393 42.401 24.6441C42.8058 25.049 42.8058 25.7114 42.401 26.1163L33.8258 34.8018C33.1266 35.501 32.869 36.4579 33.053 37.3412C33.8627 41.0951 30.992 42.8248 30.8816 42.8984C30.4768 43.1561 30.3296 43.6713 30.5504 44.113C30.6976 44.4074 30.992 44.5546 31.3232 44.5546C31.4705 44.5546 31.6177 44.5178 31.7649 44.4442C32.869 43.8185 34.5987 42.0888 34.9299 39.439C35.2244 39.5494 35.5188 39.5862 35.85 39.5862C35.9972 39.5862 36.1444 39.5494 36.2549 39.5494C36.3653 40.1014 36.6229 40.6167 37.0277 41.0583C37.5798 41.6103 38.279 41.868 39.0151 41.868C39.1255 41.868 39.2359 41.8312 39.3831 41.8312C39.4567 42.3832 39.7143 42.9353 40.156 43.3769C40.4504 43.6713 40.8184 43.8921 41.1865 44.0393C39.7143 46.1003 37.9478 47.9773 36.6229 49.3022C35.4452 50.4431 33.8259 50.9215 32.2065 50.5535L31.2496 50.3327C30.9552 50.2591 30.6608 50.3695 30.44 50.5535L27.4957 53.4977C27.1645 53.829 27.1645 54.381 27.4957 54.749C27.6797 54.9331 27.9006 55.0067 28.1214 55.0067C28.3422 55.0067 28.563 54.9331 28.747 54.749L31.3232 52.1728L31.8017 52.2832C33.9731 52.7985 36.2549 52.136 37.8374 50.5903C39.4935 48.971 41.7385 46.542 43.3946 43.9289C43.6523 43.7817 43.9099 43.6345 44.0939 43.4137L46.2285 41.2791C46.7437 40.7639 47.0381 40.0278 47.0381 39.2918C47.0381 38.5189 46.7437 37.8196 46.1917 37.2676ZM36.5493 37.5252C36.1444 37.93 35.482 37.93 35.0772 37.5252C34.6723 37.1204 34.6723 36.4579 35.0772 36.0531L38.8679 32.2624C39.2727 31.8575 39.9352 31.8575 40.34 32.2624C40.524 32.4464 40.6344 32.7408 40.6344 32.9984C40.6344 33.2929 40.524 33.5505 40.34 33.7345L36.5493 37.5252ZM39.7143 39.807C39.3095 40.2118 38.6471 40.2118 38.2422 39.807C37.8374 39.4022 37.8374 38.7397 38.2422 38.3349L41.1497 35.4274C41.3705 35.2066 41.6281 35.133 41.8857 35.133C42.1433 35.133 42.4378 35.2434 42.6218 35.4274C43.0266 35.8323 43.0266 36.4947 42.6218 36.8996L39.7143 39.807ZM44.9404 40.0278L42.8058 42.1624C42.401 42.5672 41.7385 42.5672 41.3337 42.1624C40.9288 41.7576 40.9288 41.0951 41.3337 40.6903L43.4683 38.5557C43.8731 38.1509 44.5355 38.1509 44.9404 38.5557C45.1244 38.7397 45.2348 39.0341 45.2348 39.2918C45.2716 39.5494 45.1612 39.807 44.9404 40.0278Z" fill="#019ED1"/>
<path d="M28.7505 24.2014C29.2289 24.2014 29.6337 23.7966 29.6337 23.3181V20.8891C29.6337 20.4107 29.2289 20.0059 28.7505 20.0059C28.272 20.0059 27.8672 20.4107 27.8672 20.8891V23.3181C27.8672 23.7966 28.272 24.2014 28.7505 24.2014Z" fill="#019ED1"/>
<path d="M24.2907 25.5244C24.4747 25.7084 24.6955 25.782 24.9163 25.782C25.1371 25.782 25.358 25.7084 25.542 25.5244C25.8732 25.1932 25.8732 24.6411 25.542 24.2731L23.8122 22.5433C23.481 22.2121 22.8921 22.2121 22.5609 22.5433C22.2297 22.8746 22.2297 23.4266 22.5609 23.7946L24.2907 25.5244Z" fill="#019ED1"/>
<path d="M32.5772 25.782C32.798 25.782 33.0188 25.7084 33.2028 25.5244L34.9326 23.7946C35.2638 23.4634 35.2638 22.9114 34.9326 22.5433C34.6014 22.2121 34.0125 22.2121 33.6813 22.5433L31.9515 24.2731C31.6203 24.6043 31.6203 25.1564 31.9515 25.5244C32.1356 25.7084 32.3564 25.782 32.5772 25.782Z" fill="#019ED1"/>
</svg>
