<svg width="42" height="46" viewBox="0 0 42 46" fill="none" xmlns="http://www.w3.org/2000/svg">
<path d="M-8.70388e-07 33.6807L-2.81748e-06 11.4088C-2.85024e-06 11.034 0.209504 10.6908 0.542767 10.5194L20.5428 0.237027C20.8297 0.0894904 21.1703 0.0894904 21.4572 0.237027L41.4572 10.5194C41.7905 10.6908 42 11.034 42 11.4088L42 22.533L42 33.6807C42 34.043 41.8041 34.377 41.4878 34.5537L21.4878 45.7294C21.1847 45.8988 20.8153 45.8988 20.5122 45.7294L10.5 40.1347L0.512206 34.5537C0.195945 34.377 -8.38716e-07 34.043 -8.70388e-07 33.6807Z" fill="white" fill-opacity="0.1"/>
<path d="M0.499997 11.4088L0.499999 33.6807C0.499999 33.8619 0.597972 34.0288 0.756103 34.1172L10.7439 39.6982L20.7561 45.2929C20.9077 45.3776 21.0923 45.3776 21.2439 45.2929L41.2439 34.1172L41.4857 34.55L41.2439 34.1172C41.402 34.0288 41.5 33.8619 41.5 33.6807L41.5 22.533L41.5 11.4088C41.5 11.2214 41.3952 11.0498 41.2286 10.9641L21.2286 0.681701C21.0851 0.607933 20.9149 0.607933 20.7714 0.6817L20.5428 0.237027L20.7714 0.681701L0.771382 10.9641C0.604749 11.0498 0.499997 11.2214 0.499997 11.4088Z" stroke="white" stroke-opacity="0.1"/>
<path fill-rule="evenodd" clip-rule="evenodd" d="M19.9508 32.1717L19.9508 15.5619L12.7909 22.6791C12.3809 23.0864 11.7173 23.0864 11.3082 22.6791C11.1018 22.4755 11 22.2082 11 21.9418C11 21.6746 11.1018 21.4082 11.3082 21.2046L20.2581 12.3074C20.2663 12.2992 20.2772 12.2965 20.2863 12.2892C20.3772 12.2038 20.4808 12.131 20.599 12.0829C20.7244 12.031 20.8581 12.0047 20.9917 12.0038C20.9944 12.0038 20.9972 12.002 20.9999 12.002C21.0017 12.002 21.0035 12.0029 21.0063 12.0029C21.1408 12.0038 21.2744 12.031 21.4017 12.0829C21.5108 12.1283 21.6062 12.1974 21.6935 12.2756C21.7081 12.2883 21.7281 12.2929 21.7426 12.3074L30.6925 21.2046C31.1025 21.6118 31.1025 22.2718 30.6925 22.6791C30.2834 23.0864 29.6189 23.0864 29.2098 22.6791L22.0481 15.561L22.0481 32.1717C22.0481 32.7472 21.579 33.2144 20.9999 33.2144C20.4208 33.2144 19.9508 32.7472 19.9508 32.1717Z" fill="#B2B9C1"/>
</svg>
