<svg width="199" height="216" viewBox="0 0 199 216" fill="none" xmlns="http://www.w3.org/2000/svg">
<g filter="url(#filter0_d_222_209)">
<path d="M26 60.4584L26 133.705C26 137.459 28.0692 140.907 31.3817 142.674L94.717 176.449C97.7064 178.044 101.294 178.044 104.283 176.449L167.618 142.674C170.931 140.907 173 137.459 173 133.705L173 97.2026L173 60.4584C173 56.8331 171.069 53.4822 167.933 51.6642L104.597 14.9544C101.445 13.1272 97.5553 13.1272 94.4028 14.9544L62.75 33.3007L31.0675 51.6641C27.9309 53.4821 26 56.8331 26 60.4584Z" fill="white"/>
<path d="M26.5 133.705L26.5 60.4584C26.5 57.0114 28.3359 53.8253 31.3182 52.0967L63.0007 33.7333L94.6535 15.387C97.6509 13.6497 101.349 13.6497 104.347 15.387L167.682 52.0967C170.664 53.8253 172.5 57.0114 172.5 60.4584L172.5 97.2026L172.5 133.705C172.5 137.274 170.533 140.553 167.383 142.233L104.048 176.008C101.205 177.524 97.7946 177.524 94.9523 176.008L31.617 142.233C28.4674 140.553 26.5 137.274 26.5 133.705Z" stroke="#D9D9D9"/>
</g>
<path fill-rule="evenodd" clip-rule="evenodd" d="M99.5478 77.4861C99.5478 71.8244 104.163 67.2305 109.849 67.2305C111.199 67.2273 112.537 67.49 113.785 68.0036C115.034 68.5172 116.169 69.2718 117.126 70.2241C118.083 71.1764 118.843 72.3079 119.362 73.5539C119.882 74.7999 120.151 76.136 120.154 77.4861C120.154 83.1508 115.539 87.7447 109.849 87.7447C108.485 87.7464 107.134 87.4768 105.875 86.9518C104.615 86.4267 103.473 85.6566 102.514 84.6862L88.2522 94.3971C88.6494 96.3756 88.4546 98.4273 87.6922 100.296L103.329 110.573C105.171 109.071 107.476 108.252 109.853 108.256C111.203 108.253 112.54 108.516 113.788 109.03C115.037 109.544 116.171 110.299 117.128 111.252C118.085 112.204 118.844 113.336 119.363 114.582C119.883 115.828 120.151 117.164 120.154 118.514C120.154 124.176 115.539 128.77 109.849 128.77C107.124 128.776 104.507 127.698 102.575 125.775C100.643 123.852 99.5543 121.24 99.5478 118.514C99.5454 117.076 99.8485 115.654 100.437 114.342L84.9229 104.154C83.0441 105.788 80.6371 106.685 78.1474 106.68C76.7973 106.684 75.4598 106.421 74.2112 105.907C72.9627 105.393 71.8277 104.638 70.871 103.686C69.9143 102.733 69.1547 101.601 68.6356 100.355C68.1166 99.1083 67.8481 97.7719 67.8457 96.4217C67.8485 95.0719 68.1173 93.7358 68.6365 92.4898C69.1558 91.2438 69.9155 90.1123 70.8721 89.16C71.8287 88.2076 72.9636 87.453 74.2119 86.9394C75.4603 86.4257 76.7975 86.163 78.1474 86.1662C81.4213 86.1662 84.3321 87.6831 86.2183 90.0463L100.043 80.6338C99.7142 79.617 99.5471 78.5548 99.5478 77.4861Z" fill="#FD6584"/>
<defs>
<filter id="filter0_d_222_209" x="0.588234" y="0.878101" width="197.824" height="214.885" filterUnits="userSpaceOnUse" color-interpolation-filters="sRGB">
<feFlood flood-opacity="0" result="BackgroundImageFix"/>
<feColorMatrix in="SourceAlpha" type="matrix" values="0 0 0 0 0 0 0 0 0 0 0 0 0 0 0 0 0 0 127 0" result="hardAlpha"/>
<feOffset dy="12.7059"/>
<feGaussianBlur stdDeviation="12.7059"/>
<feColorMatrix type="matrix" values="0 0 0 0 0.160784 0 0 0 0 0.160784 0 0 0 0 0.164706 0 0 0 0.2 0"/>
<feBlend mode="normal" in2="BackgroundImageFix" result="effect1_dropShadow_222_209"/>
<feBlend mode="normal" in="SourceGraphic" in2="effect1_dropShadow_222_209" result="shape"/>
</filter>
</defs>
</svg>
