<svg width="53" height="53" viewBox="0 0 53 53" fill="none" xmlns="http://www.w3.org/2000/svg">
<g clip-path="url(#clip0_222_381)">
<path d="M19.9941 26.4938H16.7441V23.2438H19.9941V26.4938ZM32.9941 26.4938H29.7441V23.2438H32.9941V26.4938ZM45.9941 23.2438V29.7438H42.7441V37.8688C42.7441 38.5459 42.6172 39.1807 42.3633 39.7731C42.1094 40.3656 41.7624 40.8818 41.3223 41.3219C40.8822 41.762 40.3659 42.1091 39.7734 42.363C39.181 42.6169 38.5462 42.7438 37.8691 42.7438H31.166L19.9941 52.2907V42.7438H11.8691C11.1921 42.7438 10.5573 42.6169 9.96484 42.363C9.3724 42.1091 8.85612 41.762 8.41602 41.3219C7.97591 40.8818 7.62891 40.3656 7.375 39.7731C7.12109 39.1807 6.99414 38.5459 6.99414 37.8688V29.7438H3.74414V23.2438H6.99414V18.3688C6.99414 17.6917 7.12109 17.057 7.375 16.4645C7.62891 15.8721 7.97591 15.3558 8.41602 14.9157C8.85612 14.4756 9.3724 14.1286 9.96484 13.8747C10.5573 13.6208 11.1921 13.4938 11.8691 13.4938H23.2441V8.18717C22.7533 7.89941 22.3639 7.50163 22.0762 6.99382C21.7884 6.486 21.6361 5.94434 21.6191 5.36882C21.6191 4.91178 21.7038 4.48861 21.873 4.09928C22.0423 3.70996 22.2708 3.37142 22.5586 3.08366C22.8464 2.7959 23.1934 2.55892 23.5996 2.37272C24.0059 2.18652 24.429 2.10189 24.8691 2.11882C25.3262 2.11882 25.7493 2.20345 26.1387 2.37272C26.528 2.54199 26.8665 2.77051 27.1543 3.05827C27.4421 3.34603 27.679 3.69303 27.8652 4.09928C28.0514 4.50553 28.1361 4.92871 28.1191 5.36882C28.1191 5.94434 27.9753 6.486 27.6875 6.99382C27.3997 7.50163 27.002 7.89941 26.4941 8.18717V13.4938H37.8691C38.5462 13.4938 39.181 13.6208 39.7734 13.8747C40.3659 14.1286 40.8822 14.4756 41.3223 14.9157C41.7624 15.3558 42.1094 15.8721 42.3633 16.4645C42.6172 17.057 42.7441 17.6917 42.7441 18.3688V23.2438H45.9941ZM39.4941 18.3688C39.4941 17.9287 39.3333 17.5479 39.0117 17.2262C38.6901 16.9046 38.3092 16.7438 37.8691 16.7438H11.8691C11.429 16.7438 11.0482 16.9046 10.7266 17.2262C10.4049 17.5479 10.2441 17.9287 10.2441 18.3688V37.8688C10.2441 38.3089 10.4049 38.6898 10.7266 39.0114C11.0482 39.333 11.429 39.4938 11.8691 39.4938H23.2441V45.2321L29.9473 39.4938H37.8691C38.3092 39.4938 38.6901 39.333 39.0117 39.0114C39.3333 38.6898 39.4941 38.3089 39.4941 37.8688V18.3688ZM17.8867 30.0993C18.8177 31.0303 19.8841 31.7412 21.0859 32.2321C22.2878 32.723 23.5488 32.9769 24.8691 32.9938C26.1895 32.9938 27.4505 32.7484 28.6523 32.2575C29.8542 31.7666 30.9206 31.0472 31.8516 30.0993L34.1367 32.4098C32.901 33.6455 31.4876 34.5934 29.8965 35.2536C28.3053 35.9137 26.6296 36.2438 24.8691 36.2438C23.1257 36.2438 21.4583 35.9137 19.8672 35.2536C18.276 34.5934 16.8542 33.6455 15.6016 32.4098L17.8867 30.0993Z" fill="#019ED1"/>
</g>
<defs>
<clipPath id="clip0_222_381">
<rect width="52" height="52" fill="white" transform="translate(0.494141 0.493896)"/>
</clipPath>
</defs>
</svg>
