<svg width="53" height="53" viewBox="0 0 53 53" fill="none" xmlns="http://www.w3.org/2000/svg">
<path d="M48.4941 24.0495V19.1606H43.6053V14.2717C43.6014 12.9762 43.0851 11.735 42.1691 10.819C41.2531 9.90297 40.0118 9.38665 38.7164 9.38279H33.8275V4.4939H28.9386V9.38279H24.0497V4.4939H19.1608V9.38279H14.2719C12.9765 9.38665 11.7352 9.90297 10.8192 10.819C9.90322 11.735 9.3869 12.9762 9.38303 14.2717V19.1606H4.49414V24.0495H9.38303V28.9383H4.49414V33.8272H9.38303V38.7161C9.3869 40.0115 9.90322 41.2528 10.8192 42.1688C11.7352 43.0848 12.9765 43.6011 14.2719 43.605H19.1608V48.4939H24.0497V43.605H28.9386V48.4939H33.8275V43.605H38.7164C40.0118 43.6011 41.2531 43.0848 42.1691 42.1688C43.0851 41.2528 43.6014 40.0115 43.6053 38.7161V33.8272H48.4941V28.9383H43.6053V24.0495H48.4941ZM38.7164 38.7161H14.2719V14.2717H38.7164V38.7161Z" fill="#019ED1"/>
<path d="M25.109 17.8279H22.1948L17.8398 35.1612H20.065L21.0703 31.0987H26.0883L27.0677 35.1612H29.3687L25.109 17.8279ZM21.3628 29.3632L23.5685 19.8862H23.6682L25.798 29.3632H21.3628ZM31.3555 17.8279H33.5222V35.1612H31.3555V17.8279Z" fill="#019ED1"/>
</svg>
