<svg width="89" height="102" viewBox="0 0 89 102" fill="none" xmlns="http://www.w3.org/2000/svg">
<g id="Group 850">
<path id="Vector" d="M44.1587 31.0597C44.7459 31.0597 45.2221 30.5836 45.2221 29.9963V27.1062C45.2221 26.5189 44.7459 26.0428 44.1587 26.0428C43.5715 26.0428 43.0953 26.5189 43.0953 27.1062V29.9963C43.0953 30.5836 43.5715 31.0597 44.1587 31.0597Z" fill="#019ED1" stroke="#019ED1" stroke-width="0.2"/>
<g id="Group 427319724">
<g id="Group 427319723">
<path id="Polygon 22" d="M0.999995 75.7788L0.999999 27.3615C0.999999 26.7511 1.32428 26.1867 1.8516 25.8792L22.6287 13.7645L43.3857 1.66151C43.9198 1.35006 44.5802 1.35006 45.1143 1.66151L86.6484 25.8792C87.1757 26.1867 87.5 26.7511 87.5 27.3616L87.5 51.6026L87.5 75.7788C87.5 76.411 87.1524 76.992 86.5953 77.2909L45.0612 99.5728C44.5546 99.8446 43.9455 99.8446 43.4388 99.5728L1.90473 77.2909C1.34763 76.992 0.999995 76.411 0.999995 75.7788Z" fill="white" stroke="#D9D9D9" stroke-width="2"/>
<path id="Vector_2" d="M64.3931 51.8685H67.8612C68.4484 51.8685 68.9246 51.3925 68.9246 50.8052C68.9246 50.2179 68.4484 49.7418 67.8612 49.7418H64.3931C63.8059 49.7418 63.3297 50.2179 63.3297 50.8052C63.3297 51.3925 63.8059 51.8685 64.3931 51.8685Z" fill="#019ED1" stroke="#019ED1" stroke-width="0.2"/>
<path id="Vector_3" d="M20.4634 51.8685H23.9315C24.5187 51.8685 24.9949 51.3925 24.9949 50.8052C24.9949 50.2179 24.5187 49.7418 23.9315 49.7418H20.4634C19.8762 49.7418 19.4 50.2179 19.4 50.8052C19.4 51.3925 19.8762 51.8685 20.4634 51.8685Z" fill="#019ED1" stroke="#019ED1" stroke-width="0.2"/>
<path id="Vector_4" d="M59.2153 36.674L59.2154 36.6739L61.2596 34.6297C61.6749 34.2144 61.6749 33.5411 61.2596 33.1258L61.2596 33.1257C60.8443 32.7105 60.1712 32.7105 59.7557 33.1257L59.7557 33.1257L57.7114 35.17C57.2962 35.5853 57.2962 36.2586 57.7114 36.6739L57.7114 36.674C58.1268 37.0892 58.7999 37.0892 59.2153 36.674Z" fill="#019ED1" stroke="#019ED1" stroke-width="0.2"/>
<path id="Vector_5" d="M29.1073 36.6739L29.1073 36.674C29.5226 37.0892 30.1957 37.0892 30.6112 36.674L30.6112 36.6739C31.0265 36.2587 31.0264 35.5854 30.6112 35.17L30.6112 35.17L28.5669 33.1257L28.5669 33.1257C28.1516 32.7105 27.4785 32.7105 27.063 33.1257L27.063 33.1257C26.6477 33.541 26.6478 34.2143 27.063 34.6297L27.063 34.6297L29.1073 36.6739Z" fill="#019ED1" stroke="#019ED1" stroke-width="0.2"/>
<path id="Vector_6" d="M44.1587 75.568C44.746 75.568 45.2221 75.0919 45.2221 74.5046C45.2221 73.9173 44.746 73.4413 44.1587 73.4413C43.5714 73.4413 43.0953 73.9173 43.0953 74.5046C43.0953 75.0919 43.5714 75.568 44.1587 75.568Z" fill="#019ED1" stroke="#019ED1" stroke-width="0.2"/>
<path id="Vector_7" d="M50.3262 41.5564C50.3262 40.5492 49.5066 39.7296 48.4994 39.7296C47.4922 39.7296 46.6727 40.5492 46.6727 41.5564V46.4696C46.6727 47.4768 47.4922 48.2963 48.4994 48.2963C48.632 48.2963 48.7626 48.2973 48.8901 48.2983C48.8902 48.2983 48.8902 48.2983 48.8902 48.2983M50.3262 41.5564L50.3706 48.2651C50.2261 48.4084 49.3934 48.4021 48.8931 48.3984L48.8894 48.3983L48.8902 48.2983M50.3262 41.5564V47.9146C50.3262 48.0448 50.313 48.1235 50.3018 48.167C50.2978 48.1825 50.294 48.1934 50.2913 48.2005M50.3262 41.5564L50.2913 48.2005M48.8902 48.2983L48.8924 48.2984C49.1427 48.3002 49.4725 48.3027 49.7577 48.2871C49.9009 48.2793 50.0298 48.2671 50.1303 48.2487C50.1806 48.2395 50.2213 48.2292 50.252 48.2181C50.2715 48.2111 50.2839 48.2049 50.2913 48.2005M48.8902 48.2983L50.2913 48.2005M39.8291 73.4404H38.0023V65.2554C38.0023 64.8539 37.7745 64.4861 37.4166 64.3053L37.4165 64.3053L37.4164 64.3053L37.4161 64.3051L37.415 64.3046L37.4114 64.3027L37.3985 64.2959C37.3876 64.2901 37.3719 64.2817 37.3518 64.2708C37.3117 64.2488 37.254 64.2166 37.1813 64.1742C37.0358 64.0893 36.8304 63.9635 36.5852 63.7974C36.0945 63.465 35.4453 62.9717 34.798 62.3214C33.5025 61.02 32.2221 59.0982 32.2221 56.585V49.3597C32.2221 48.3525 33.0416 47.5329 34.0489 47.532H44.425C43.9416 49.6234 42.0641 51.1864 39.8291 51.1864H36.9389C36.3517 51.1864 35.8756 51.6625 35.8756 52.2498C35.8756 52.8371 36.3517 53.3132 36.9389 53.3132C41.1333 53.3132 44.5459 56.7258 44.5459 60.9202C44.5459 61.5075 45.0221 61.9836 45.6093 61.9836C46.1965 61.9836 46.6727 61.5075 46.6727 60.9202C46.6727 58.3194 48.7887 56.2033 51.3895 56.2033C51.9767 56.2033 52.4529 55.7272 52.4529 55.1399C52.4529 54.5526 51.9767 54.0766 51.3895 54.0766C49.097 54.0766 47.0645 55.2097 45.8221 56.9446C45.07 55.2705 43.8591 53.8456 42.3496 52.8323C43.9255 52.2057 45.2148 51.0095 45.9635 49.4996C46.6506 50.0753 47.5352 50.4192 48.4995 50.4192C48.6225 50.4192 48.747 50.4202 48.8701 50.4211L48.8756 50.4212C48.9967 50.4221 49.1164 50.4231 49.2312 50.4231C49.6514 50.4231 50.0652 50.414 50.4524 50.3474C50.8921 52.0507 52.4405 53.3132 54.2797 53.3132C54.9384 53.3132 55.5597 53.1504 56.1064 52.8641V56.585C56.1064 59.0982 54.826 61.02 53.5307 62.3213C52.8835 62.9715 52.2344 63.4648 51.744 63.797C51.4989 63.9631 51.2936 64.0888 51.1484 64.1736C51.0757 64.216 51.0181 64.2482 50.9781 64.2701C50.9581 64.281 50.9424 64.2894 50.9315 64.2951L50.9187 64.3018L50.9151 64.3037L50.9141 64.3043L50.914 64.3043C50.9139 64.3043 50.9139 64.3043 50.9138 64.3044C50.5537 64.4845 50.3262 64.8526 50.3262 65.2554V73.4404H48.4994C47.9122 73.4404 47.436 73.9165 47.436 74.5038C47.436 75.0911 47.9122 75.5671 48.4994 75.5671H51.3895C51.9767 75.5671 52.4529 75.0911 52.4529 74.5038V65.8751C54.0276 64.9177 58.2332 61.8676 58.2332 56.585V56.5737V56.5623V56.5508V56.5391V56.5273V56.5154V56.5034V56.4913V56.479V56.4667V56.4542V56.4416V56.4289V56.4161V56.4031V56.3901V56.3769V56.3636V56.3502V56.3367V56.3231V56.3094V56.2956V56.2816V56.2675V56.2534V56.2391V56.2247V56.2102V56.1956V56.1809V56.1661V56.1511V56.1361V56.1209V56.1057V56.0903V56.0749V56.0593V56.0437V56.0279V56.012V55.996V55.98V55.9638V55.9475V55.9311V55.9146V55.898V55.8814V55.8646V55.8477V55.8307V55.8136V55.7965V55.7792V55.7618V55.7443V55.7268V55.7091V55.6914V55.6735V55.6556V55.6375V55.6194V55.6012V55.5829V55.5644V55.5459V55.5273V55.5087V55.4899V55.471V55.4521V55.433V55.4139V55.3947V55.3754V55.356V55.3365V55.3169V55.2973V55.2775V55.2577V55.2378V55.2178V55.1977V55.1775V55.1573V55.1369V55.1165V55.096V55.0754V55.0548V55.034V55.0132V54.9923V54.9713V54.9503V54.9291V54.9079V54.8866V54.8652V54.8438V54.8222V54.8006V54.7789V54.7572V54.7354V54.7135V54.6915V54.6694V54.6473V54.6251V54.6028V54.5805V54.5581V54.5356V54.513V54.4904V54.4677V54.4449V54.4221V54.3992V54.3762V54.3531V54.33V54.3068V54.2836V54.2603V54.2369V54.2135V54.19V54.1664V54.1428V54.1191V54.0953V54.0715V54.0476V54.0236V53.9996V53.9755V53.9514V53.9272V53.903V53.8786V53.8543V53.8298V53.8054V53.7808V53.7562V53.7315V53.7068V53.682V53.6572V53.6323V53.6074V53.5824V53.5573V53.5322V53.5071V53.4819V53.4566V53.4313V53.4059V53.3805V53.3551V53.3295V53.304V53.2784V53.2527V53.227V53.2012V53.1754V53.1496V53.1236V53.0977V53.0717V53.0457V53.0196V52.9934V52.9673V52.941V52.9148V52.8885V52.8621V52.8357V52.8093V52.7828V52.7563V52.7298V52.7032V52.6765V52.6498V52.6231V52.5964V52.5696V52.5428V52.5159V52.489V52.462V52.4351V52.4081V52.381V52.3539V52.3268V52.2997V52.2725V52.2453V52.218V52.1907V52.1634V52.1361V52.1087V52.0813V52.0539V52.0264V51.9989V51.9714V51.9438V51.9163V51.8887V51.861V51.8334V51.8057V51.778V51.7502V51.7225V51.6947V51.6669V51.639V51.6112V51.5833V51.5554V51.5275V51.4995V51.4715V51.4436V51.4155V51.3875V51.3595V51.3314V51.3033V51.2752V51.2471V51.2189V51.1908V51.1626V51.1344V51.1062V51.078V51.0497V51.0215V50.9932V50.9649V50.9367V50.9083V50.88V50.8517V50.8234V50.795V50.7666V50.7383V50.7099V50.6815V50.6531V50.6247V50.5963V50.5678V50.5394V50.511V50.4825V50.454V50.4256V50.3971V50.3687V50.3402V50.3117V50.2832V50.2547V50.2262V50.1978V50.1693V50.1408V50.1123V50.0838V50.0553V50.0268V49.9983V49.9698V49.9413V49.9128V49.8843V49.8558V49.8274V49.7989V49.7704V49.7419V49.7135V49.685V49.6565V49.6281V49.5997V49.5712V49.5428V49.5144V49.486V49.4576V49.4292V49.4008V49.3724V49.344V49.3157V49.2873V49.259V49.2307V49.2024V49.1741V49.1458V49.1175V49.0893V49.061V49.0328V49.0046V48.9764V48.9482V48.9201V48.8919V48.8638V48.8357V48.8076V48.7795V48.7515V48.7235V48.6954V48.6675V48.6395V48.6115V48.5836V48.5557V48.5278V48.4999V48.4721V48.4443V48.4165V48.3887V48.361V48.3333V48.3056V48.2779V48.2503V48.2227V48.1951V48.1675V48.14V48.1125V48.0851V48.0576V48.0302V48.0028V47.9755V47.9482V47.9209V47.8936V47.8664V47.8392V47.8121V47.785V47.7579V47.7308V47.7038V47.6768V47.6499V47.623V47.5961V47.5693V47.5425V47.5157V47.489V47.4623V47.4357V47.4091V47.3825V47.356V47.3295V47.3031V47.2767V47.2503V47.224V47.1978V47.1715V47.1454V47.1192V47.0931V47.0671V47.0411V47.0151V46.9892V46.9633V46.9375V46.9118V46.886V46.8604V46.8348V46.8092V46.7837V46.7582V46.7328V46.7074V46.6821V46.6568V46.6316V46.6064V46.5813V46.5563V46.5313V46.5063V46.4814V46.4566V46.4318V46.4071V46.3824V46.3578V46.3333V46.3088V46.2843V46.2599V46.2356V46.2114V46.1872V46.163V46.1389V46.1149V46.091V46.0671V46.0432V46.0195V45.9958V45.9721V45.9485V45.925V45.9016V45.8782V45.8549V45.8316V45.8084V45.7853V45.7623V45.7393V45.7164V45.6935V45.6707V45.648V45.6254V45.6028V45.5803V45.5579V45.5355V45.5133V45.4911V45.4689V45.4469V45.4249V45.4029V45.3811V45.3593V45.3377V45.316V45.2945V45.273V45.2517V45.2303V45.2091V45.188V45.1669V45.1459V45.125V45.1042V45.0834V45.0627V45.0421V45.0216V45.0012V44.9809V44.9606V44.9404V44.9203V44.9003V44.8804V44.8606V44.8408V44.8211V44.8016V44.7821V44.7627V44.7433V44.7241V44.705V44.6859V44.6669V44.6481V44.6293V44.6106V44.592V44.5735V44.5551V44.5367V44.5185V44.5004V44.4823V44.4643V44.4465C58.2332 42.2664 56.4597 40.493 54.2797 40.493C53.6029 40.493 52.9656 40.6646 52.4081 40.9657C52.1221 39.0649 50.4788 37.6029 48.4994 37.6029C47.8227 37.6029 47.1853 37.7745 46.6279 38.0756C46.3418 36.1748 44.6985 34.7127 42.7192 34.7127C40.7398 34.7127 39.0965 36.1748 38.8105 38.0756C38.253 37.7745 37.6157 37.6029 36.9389 37.6029C34.7589 37.6029 32.9854 39.3763 32.9854 41.5564V45.5515C31.3204 46.0171 30.0953 47.5477 30.0953 49.3597V56.585C30.0953 61.8676 34.3009 64.9177 35.8756 65.8751V74.5038C35.8756 75.0911 36.3517 75.5671 36.9389 75.5671H39.8291C40.4163 75.5671 40.8924 75.0911 40.8924 74.5038C40.8924 73.9165 40.4163 73.4404 39.8291 73.4404ZM54.2797 42.6197C55.2868 42.6197 56.1064 43.4393 56.1064 44.4465V49.3597C56.1064 50.3669 55.2868 51.1864 54.2797 51.1864C53.2725 51.1864 52.4529 50.3669 52.4529 49.3597V44.4465C52.4529 43.4393 53.2725 42.6197 54.2797 42.6197ZM40.8924 38.6662C40.8924 37.6591 41.712 36.8395 42.7192 36.8395C43.7264 36.8395 44.5459 37.6591 44.5459 38.6662V45.4062H40.8924V38.6662ZM36.9389 39.7296C37.9461 39.7296 38.7657 40.5492 38.7657 41.5564V45.4062H35.1122V41.5564C35.1122 40.5492 35.9318 39.7296 36.9389 39.7296Z" fill="#019ED1" stroke="#019ED1" stroke-width="0.2"/>
</g>
</g>
</g>
</svg>
