<svg width="53" height="53" viewBox="0 0 53 53" fill="none" xmlns="http://www.w3.org/2000/svg">
<path d="M41.4941 28.9941V23.9941H51.4941V28.9941H41.4941ZM44.4941 46.4941L36.4941 40.4941L39.4941 36.4941L47.4941 42.4941L44.4941 46.4941ZM39.4941 16.4941L36.4941 12.4941L44.4941 6.49414L47.4941 10.4941L39.4941 16.4941ZM8.99414 43.9941V33.9941H6.49414C5.11914 33.9941 3.94247 33.505 2.96414 32.5266C1.98581 31.5483 1.49581 30.3708 1.49414 28.9941V23.9941C1.49414 22.6191 1.98414 21.4425 2.96414 20.4641C3.94414 19.4858 5.12081 18.9958 6.49414 18.9941H16.4941L28.9941 11.4941V41.4941L16.4941 33.9941H13.9941V43.9941H8.99414ZM25.9941 34.8691V17.4941L17.8691 22.9941H4.99414V29.9941L17.8691 30.4941L25.9941 34.8691ZM31.4941 34.8691V18.1191C32.6191 19.1191 33.5258 20.3383 34.2141 21.7766C34.9025 23.215 35.2458 24.7875 35.2441 26.4941C35.2425 28.2008 34.8983 29.7741 34.2116 31.2141C33.525 32.6541 32.6191 33.8725 31.4941 34.8691Z" fill="#019ED1"/>
</svg>
