<svg width="40" height="40" viewBox="0 0 40 40" fill="none" xmlns="http://www.w3.org/2000/svg">
<g id="mdi:interaction-double-tap">
<path id="Vector" d="M16.7039 11.371C16.3601 11.7148 16.167 12.1811 16.167 12.6673V31.0007L10.3003 27.8474H9.89694C9.3836 27.8474 8.8886 28.049 8.54027 28.434L7.18359 29.8457L16.167 37.5457C16.6436 38.0591 17.3036 38.3341 18.0003 38.3341H29.917C31.4203 38.2791 32.612 37.0874 32.667 35.5841V27.5907C32.667 26.5274 32.0803 25.5557 31.1087 25.1157L22.052 21.1007L19.8336 20.8623V12.6673C19.8336 12.1811 19.6405 11.7148 19.2967 11.371C18.9528 11.0271 18.4865 10.834 18.0003 10.834C17.5141 10.834 17.0477 11.0271 16.7039 11.371Z" fill="#019ED1"/>
<path id="Vector_2" d="M18 5.33269C19.945 5.33269 21.8102 6.10531 23.1855 7.48058C24.5608 8.85585 25.3334 10.7211 25.3334 12.666C25.3334 15.4161 23.8667 17.7444 21.6667 19.0094V16.7727C22.785 15.7644 23.5001 14.2977 23.5001 12.666C23.5001 11.2074 22.9206 9.8084 21.8891 8.77695C20.8577 7.7455 19.4587 7.16603 18 7.16603C16.5413 7.16603 15.1424 7.7455 14.1109 8.77695C13.0795 9.8084 12.5 11.2074 12.5 12.666C12.5 14.2977 13.215 15.7644 14.3334 16.7727V19.0094C12.1333 17.7444 10.6667 15.4161 10.6667 12.666C10.6667 10.7211 11.4393 8.85585 12.8146 7.48058C14.1898 6.10531 16.0551 5.33269 18 5.33269ZM18 1.66602C20.9174 1.66602 23.7153 2.82494 25.7782 4.88785C27.8411 6.95076 29.0001 9.74866 29.0001 12.666C29.0001 15.7827 27.6984 18.5877 25.6267 20.6044L23.7934 19.7794C24.8468 18.917 25.6957 17.8317 26.2791 16.6016C26.8624 15.3716 27.1656 14.0274 27.1667 12.666C27.1667 10.2349 26.201 7.90331 24.4819 6.18422C22.7628 4.46513 20.4312 3.49935 18 3.49935C15.5689 3.49935 13.2373 4.46513 11.5182 6.18422C9.79911 7.90331 8.83334 10.2349 8.83334 12.666C8.83334 16.4244 11.0883 19.6511 14.3334 21.0627V23.0427C10.0617 21.5211 7 17.4511 7 12.666C7 9.74866 8.15893 6.95076 10.2218 4.88785C12.2847 2.82494 15.0826 1.66602 18 1.66602Z" fill="#001632"/>
</g>
</svg>
