<svg width="210" height="46" viewBox="0 0 210 46" fill="none" xmlns="http://www.w3.org/2000/svg">
<path d="M193.562 34.5884V10.002H196.489V24.5679L204.616 16.7856H208.542L201.483 23.2594L209.058 34.5884H205.339L199.244 25.291L196.489 27.8392V34.5884H193.562Z" fill="#019ED1"/>
<path d="M174.258 34.5891V16.7863H177.013V19.6099H177.081C177.701 18.508 178.493 17.693 179.457 17.165C180.445 16.637 181.581 16.373 182.867 16.373C184.037 16.373 185.013 16.5337 185.793 16.8551C186.574 17.1765 187.205 17.6242 187.687 18.1981C188.169 18.772 188.502 19.4607 188.686 20.2642C188.893 21.0447 188.996 21.9171 188.996 22.8812V34.5891H186.069V22.5369C186.069 21.435 185.748 20.5626 185.105 19.9198C184.462 19.2771 183.578 18.9557 182.453 18.9557C181.558 18.9557 180.777 19.0934 180.112 19.3689C179.469 19.6444 178.929 20.0346 178.493 20.5397C178.057 21.0447 177.724 21.6416 177.495 22.3303C177.288 22.996 177.185 23.7306 177.185 24.5341V34.5891H174.258Z" fill="#019ED1"/>
<path d="M153.523 25.7049C153.523 24.3964 153.707 23.1797 154.074 22.0548C154.442 20.907 154.993 19.9198 155.727 19.0934C156.462 18.244 157.357 17.5783 158.413 17.0962C159.492 16.6141 160.743 16.373 162.167 16.373C163.567 16.373 164.807 16.6141 165.886 17.0962C166.964 17.5783 167.871 18.244 168.606 19.0934C169.341 19.9198 169.891 20.907 170.259 22.0548C170.626 23.1797 170.81 24.3964 170.81 25.7049C170.81 27.0134 170.626 28.2301 170.259 29.355C169.891 30.4799 169.341 31.467 168.606 32.3164C167.871 33.1428 166.964 33.7971 165.886 34.2792C164.807 34.7612 163.567 35.0023 162.167 35.0023C160.743 35.0023 159.492 34.7612 158.413 34.2792C157.357 33.7971 156.462 33.1428 155.727 32.3164C154.993 31.467 154.442 30.4799 154.074 29.355C153.707 28.2301 153.523 27.0134 153.523 25.7049ZM156.623 25.7049C156.623 26.7838 156.76 27.748 157.036 28.5974C157.334 29.4239 157.736 30.124 158.241 30.6979C158.746 31.2489 159.331 31.6736 159.997 31.972C160.686 32.2705 161.409 32.4197 162.167 32.4197C162.924 32.4197 163.636 32.2705 164.302 31.972C164.99 31.6736 165.587 31.2489 166.092 30.6979C166.597 30.124 166.987 29.4239 167.263 28.5974C167.561 27.748 167.711 26.7838 167.711 25.7049C167.711 24.6259 167.561 23.6732 167.263 22.8468C166.987 21.9974 166.597 21.2858 166.092 20.7118C165.587 20.1379 164.99 19.7017 164.302 19.4033C163.636 19.1049 162.924 18.9557 162.167 18.9557C161.409 18.9557 160.686 19.1049 159.997 19.4033C159.331 19.7017 158.746 20.1379 158.241 20.7118C157.736 21.2858 157.334 21.9974 157.036 22.8468C156.76 23.6732 156.623 24.6259 156.623 25.7049Z" fill="#019ED1"/>
<path d="M125.039 34.5884V10.002H129.516L137.263 30.6629L145.046 10.002H149.522V34.5884H146.423V14.1341H146.354L138.675 34.5884H135.886L128.207 14.1341H128.138V34.5884H125.039Z" fill="#019ED1"/>
<path d="M105.359 34.5884V10.002H108.286V19.4027H108.355C108.585 18.8747 108.906 18.4155 109.319 18.0253C109.756 17.635 110.226 17.3251 110.731 17.0955C111.236 16.843 111.764 16.6594 112.315 16.5446C112.889 16.4298 113.44 16.3724 113.968 16.3724C115.139 16.3724 116.115 16.5331 116.895 16.8545C117.676 17.1759 118.307 17.6235 118.789 18.1974C119.271 18.7714 119.604 19.4601 119.788 20.2635C119.994 21.0441 120.097 21.9164 120.097 22.8806V34.5884H117.171V22.5362C117.171 21.4343 116.849 20.562 116.206 19.9192C115.564 19.2764 114.68 18.955 113.555 18.955C112.66 18.955 111.879 19.0927 111.213 19.3682C110.571 19.6437 110.031 20.034 109.595 20.539C109.159 21.0441 108.826 21.6409 108.596 22.3296C108.39 22.9954 108.286 23.73 108.286 24.5335V34.5884H105.359Z" fill="white"/>
<path d="M102.315 22.5024H99.2852C99.0556 21.3776 98.562 20.5052 97.8045 19.8854C97.0699 19.2656 96.0942 18.9557 94.8775 18.9557C93.8215 18.9557 92.9377 19.1508 92.226 19.5411C91.5144 19.9313 90.9405 20.4478 90.5043 21.0906C90.0911 21.7334 89.7926 22.4795 89.609 23.3289C89.4253 24.1553 89.3335 25.0162 89.3335 25.9115C89.3335 26.7379 89.4253 27.5414 89.609 28.3219C89.8156 29.1025 90.1255 29.8026 90.5387 30.4225C90.952 31.0193 91.4799 31.5014 92.1227 31.8687C92.7885 32.236 93.592 32.4197 94.5332 32.4197C95.9565 32.4197 97.0813 32.0409 97.9078 31.2833C98.7342 30.5028 99.2393 29.4353 99.4229 28.0809H102.419C102.097 30.2618 101.271 31.9606 99.9394 33.1772C98.608 34.3939 96.8173 35.0023 94.5676 35.0023C93.2132 35.0023 92.008 34.7842 90.9519 34.348C89.9189 33.8889 89.0466 33.2576 88.3349 32.4541C87.6462 31.6506 87.1182 30.6979 86.7509 29.596C86.4066 28.4712 86.2344 27.243 86.2344 25.9115C86.2344 24.58 86.4066 23.3404 86.7509 22.1925C87.0952 21.0218 87.6118 20.0117 88.3005 19.1623C89.0121 18.2899 89.8845 17.6127 90.9175 17.1306C91.9735 16.6256 93.2132 16.373 94.6365 16.373C95.6466 16.373 96.5878 16.4993 97.4601 16.7518C98.3554 16.9814 99.1474 17.3487 99.8361 17.8537C100.525 18.3588 101.076 19.0016 101.489 19.7821C101.925 20.5397 102.201 21.4464 102.315 22.5024Z" fill="white"/>
<path d="M80.9918 28.9418H83.8843C83.4941 30.916 82.6332 32.4197 81.3017 33.4527C79.9702 34.4858 78.2944 35.0023 76.2742 35.0023C74.8509 35.0023 73.6113 34.7727 72.5553 34.3136C71.5222 33.8315 70.6499 33.1772 69.9382 32.3508C69.2266 31.5244 68.6871 30.5372 68.3198 29.3894C67.9754 28.2416 67.7803 26.9905 67.7344 25.636C67.7344 24.3045 67.941 23.0764 68.3542 21.9515C68.7674 20.8037 69.3413 19.8165 70.0759 18.9901C70.8335 18.1637 71.7173 17.5209 72.7274 17.0617C73.7605 16.6026 74.8853 16.373 76.102 16.373C77.686 16.373 78.9946 16.7059 80.0276 17.3717C81.0836 18.0144 81.9215 18.8409 82.5414 19.851C83.1841 20.8611 83.6203 21.963 83.8499 23.1567C84.1024 24.3505 84.2057 25.4868 84.1598 26.5658H70.8335C70.8106 27.3463 70.9024 28.0924 71.109 28.804C71.3156 29.4927 71.6485 30.1125 72.1076 30.6635C72.5667 31.1915 73.1521 31.6162 73.8638 31.9376C74.5754 32.259 75.4133 32.4197 76.3775 32.4197C77.5942 32.4197 78.6043 32.1327 79.4078 31.5588C80.2113 30.9849 80.7393 30.1125 80.9918 28.9418ZM70.8335 23.9831H81.0607C81.0147 23.2944 80.854 22.6402 80.5786 22.0204C80.326 21.4005 79.9702 20.8725 79.5111 20.4364C79.0749 19.9772 78.5469 19.6214 77.9271 19.3689C77.3073 19.0934 76.6415 18.9557 75.9299 18.9557C75.1723 18.9557 74.4836 19.0934 73.8638 19.3689C73.2669 19.6214 72.7504 19.9772 72.3142 20.4364C71.878 20.8955 71.5337 21.435 71.2812 22.0548C71.0286 22.6517 70.8794 23.2944 70.8335 23.9831Z" fill="white"/>
<path d="M60.2346 34.5884V12.7567H52.0391V10.002H71.7014V12.7567H63.5059V34.5884H60.2346Z" fill="white"/>
<path d="M1.50269 34.0934L1.50269 13.2722C1.50269 13.0793 1.60535 12.9011 1.77215 12.8044L10.7644 7.58892L19.7496 2.37753C19.9174 2.28021 20.1244 2.28021 20.2922 2.37753L38.2696 12.8044C38.4364 12.9011 38.5391 13.0793 38.5391 13.2722L38.5391 23.7071L38.5391 34.0934C38.5391 34.2931 38.429 34.4765 38.2529 34.5705L20.0209 44.2998L1.78887 34.5705C1.61271 34.4765 1.50269 34.2931 1.50269 34.0934Z" stroke="#019ED1" stroke-width="3" stroke-linecap="round"/>
</svg>
