<svg width="49" height="49" viewBox="0 0 49 49" fill="none" xmlns="http://www.w3.org/2000/svg">
<path d="M26.4941 35.4941L33.4941 28.4941C33.8608 28.1275 34.1528 27.6941 34.3701 27.1941C34.5875 26.6941 34.6955 26.1608 34.6941 25.5941C34.6941 24.4608 34.2941 23.4941 33.4941 22.6941C32.6941 21.8941 31.7275 21.4941 30.5941 21.4941C29.9608 21.4941 29.3361 21.6775 28.7201 22.0441C28.1041 22.4108 27.3621 23.0275 26.4941 23.8941C25.4941 22.9608 24.7108 22.3275 24.1441 21.9941C23.5775 21.6608 22.9941 21.4941 22.3941 21.4941C21.2608 21.4941 20.2941 21.8941 19.4941 22.6941C18.6941 23.4941 18.2941 24.4608 18.2941 25.5941C18.2941 26.1608 18.4028 26.6941 18.6201 27.1941C18.8375 27.6941 19.1288 28.1275 19.4941 28.4941L26.4941 35.4941ZM43.2941 28.9941L28.9941 43.2941C28.5941 43.6941 28.1441 43.9941 27.6441 44.1941C27.1441 44.3941 26.6441 44.4941 26.1441 44.4941C25.6441 44.4941 25.1441 44.3941 24.6441 44.1941C24.1441 43.9941 23.6941 43.6941 23.2941 43.2941L5.64414 25.6441C5.27747 25.2775 4.99414 24.8528 4.79414 24.3701C4.59414 23.8875 4.49414 23.3788 4.49414 22.8441V8.49412C4.49414 7.39412 4.88614 6.45278 5.67014 5.67012C6.45414 4.88745 7.39547 4.49545 8.49414 4.49412H22.8441C23.3775 4.49412 23.8941 4.60278 24.3941 4.82012C24.8941 5.03745 25.3275 5.32878 25.6941 5.69412L43.2941 23.3441C43.6941 23.7441 43.9861 24.1941 44.1701 24.6941C44.3541 25.1941 44.4455 25.6941 44.4441 26.1941C44.4428 26.6941 44.3515 27.1861 44.1701 27.6701C43.9888 28.1541 43.6968 28.5955 43.2941 28.9941ZM26.1441 40.4941L40.4441 26.1941L22.7941 8.49412H8.49414V22.7941L26.1441 40.4941ZM13.4941 16.4941C14.3275 16.4941 15.0361 16.2028 15.6201 15.6201C16.2041 15.0375 16.4955 14.3288 16.4941 13.4941C16.4928 12.6595 16.2015 11.9515 15.6201 11.3701C15.0388 10.7888 14.3301 10.4968 13.4941 10.4941C12.6581 10.4915 11.9501 10.7835 11.3701 11.3701C10.7901 11.9568 10.4981 12.6648 10.4941 13.4941C10.4901 14.3235 10.7821 15.0321 11.3701 15.6201C11.9581 16.2081 12.6661 16.4995 13.4941 16.4941Z" fill="#019ED1"/>
</svg>
