<svg width="68" height="76" viewBox="0 0 68 76" fill="none" xmlns="http://www.w3.org/2000/svg">
<path d="M-2.73092e-06 56.0336L-6.0171e-06 18.4443C-6.0496e-06 18.0726 0.206216 17.7315 0.535417 17.5588L33.5354 0.245694C33.8263 0.0930667 34.1737 0.0930672 34.4646 0.245695L67.4646 17.5588C67.7938 17.7315 68 18.0726 68 18.4443L68 37.2271L68 56.0336C68 56.3928 67.8074 56.7244 67.4954 56.9023L34.4953 75.7195C34.1883 75.8946 33.8117 75.8946 33.5047 75.7195L17 66.3082L0.504651 56.9023C0.192632 56.7244 -2.69952e-06 56.3928 -2.73092e-06 56.0336Z" fill="#001632"/>
<path d="M0.499994 18.4443L0.499997 56.0336C0.499997 56.2132 0.596311 56.379 0.752324 56.4679L17.2477 65.8739L33.7523 75.2851C33.9058 75.3727 34.0942 75.3727 34.2477 75.2851L67.2477 56.4679C67.4037 56.379 67.5 56.2132 67.5 56.0336L67.5 37.2271L67.5 18.4443C67.5 18.2584 67.3969 18.0879 67.2323 18.0015L34.2323 0.688459C34.0868 0.612146 33.9132 0.612145 33.7677 0.688459L0.767709 18.0016C0.603105 18.0879 0.499994 18.2584 0.499994 18.4443Z" stroke="white" stroke-opacity="0.1"/>
<path d="M51.4033 24.9043H16.1042C14.122 24.9043 12.5078 26.5184 12.5078 28.5006L12.5078 48.2198C12.5078 50.2041 14.122 51.8162 16.1042 51.8162H51.4017C53.386 51.8162 54.9981 50.202 54.9981 48.2198L55.0002 28.5006C55.0002 26.5185 53.3855 24.9043 51.4033 24.9043ZM53.327 48.2216C53.327 49.2837 52.4634 50.1452 51.4033 50.1452H16.1042C15.0441 50.1452 14.1805 49.2817 14.1805 48.2216V28.5002C14.1805 27.438 15.0441 26.5766 16.1042 26.5766H51.4017C52.4639 26.5766 53.3254 27.4401 53.3254 28.5002L53.327 48.2216Z" fill="#019ED1"/>
<path d="M50.6177 31.7575C49.3674 31.7575 48.3491 30.7392 48.3491 29.4888C48.3491 29.0268 47.9748 28.6525 47.5127 28.6525L20.0038 28.6504C19.5417 28.6504 19.1675 29.0247 19.1675 29.4867C19.1675 30.7371 18.1492 31.7554 16.8989 31.7554C16.4368 31.7554 16.0625 32.1296 16.0625 32.5917V44.1272C16.0625 44.5893 16.4368 44.9636 16.8989 44.9636C18.1492 44.9636 19.1675 45.9818 19.1675 47.2322C19.1675 47.6943 19.5417 48.0686 20.0038 48.0686H47.5127C47.9748 48.0686 48.3491 47.6943 48.3491 47.2322C48.3491 45.9819 49.3673 44.9636 50.6177 44.9636C51.0798 44.9636 51.4541 44.5893 51.4541 44.1272V32.5939C51.4541 32.1297 51.0798 31.7575 50.6177 31.7575ZM49.7814 43.3808C48.278 43.7069 47.0904 44.8945 46.7663 46.3958L20.7503 46.3979C20.4241 44.8945 19.2365 43.707 17.7352 43.3828V33.3402C19.2386 33.014 20.4261 31.8264 20.7503 30.3251H46.7663C47.0925 31.8285 48.2801 33.0161 49.7814 33.3402V43.3808Z" fill="#019ED1"/>
<path d="M33.7453 33.1855C30.8912 33.1855 28.5703 35.5064 28.5703 38.3605C28.5703 41.2146 30.8912 43.5355 33.7453 43.5355C36.5994 43.5355 38.9202 41.2146 38.9202 38.3605C38.9202 35.5064 36.5994 33.1855 33.7453 33.1855ZM33.7453 41.8627C31.8133 41.8627 30.243 40.2925 30.243 38.3605C30.243 36.4285 31.8133 34.8583 33.7453 34.8583C35.6773 34.8583 37.2475 36.4285 37.2475 38.3605C37.2475 40.2925 35.6773 41.8627 33.7453 41.8627Z" fill="#019ED1"/>
<path d="M44.0064 35.8613C42.6286 35.8613 41.5078 36.9821 41.5078 38.3599C41.5078 39.7378 42.6286 40.8586 44.0064 40.8586C45.3843 40.8586 46.5051 39.7378 46.5051 38.3599C46.5051 36.9821 45.3843 35.8613 44.0064 35.8613ZM44.0064 39.1858C43.5506 39.1858 43.1805 38.8157 43.1805 38.3599C43.1805 37.9041 43.5506 37.534 44.0064 37.534C44.4622 37.534 44.8324 37.9041 44.8324 38.3599C44.8324 38.8157 44.4623 39.1858 44.0064 39.1858Z" fill="#019ED1"/>
<path d="M23.5064 35.8613C22.1286 35.8613 21.0078 36.9821 21.0078 38.3599C21.0078 39.7378 22.1286 40.8586 23.5064 40.8586C24.8822 40.8586 26.003 39.7378 26.003 38.3599C26.0051 36.9821 24.8844 35.8613 23.5064 35.8613ZM23.5064 39.1858C23.0506 39.1858 22.6805 38.8157 22.6805 38.3599C22.6805 37.9041 23.0506 37.534 23.5064 37.534C23.9622 37.534 24.3303 37.9041 24.3303 38.3599C24.3324 38.8157 23.9623 39.1858 23.5064 39.1858Z" fill="#019ED1"/>
</svg>
