<svg width="524" height="294" viewBox="0 0 524 294" fill="none" xmlns="http://www.w3.org/2000/svg">
<path d="M519.369 0.731887L435.042 18.0212C432.511 18.5387 431.706 21.758 433.698 23.4027L463.611 48.1126C464.921 49.1953 465.105 51.1296 464.022 52.4396L341.969 200.248C340.918 201.521 339.056 201.738 337.741 200.743L208.422 102.757C207.088 101.749 205.188 101.991 204.149 103.307L138.867 186.058C137.807 187.409 135.843 187.625 134.51 186.538L98.1442 156.914C96.8117 155.826 94.8515 156.042 93.7872 157.391L1.45363 274.445C0.401902 275.777 0.629303 277.71 1.96157 278.762L20.2777 293.205C21.6135 294.257 23.5469 294.026 24.5986 292.694L98.3851 199.157C99.4497 197.81 101.41 197.594 102.742 198.678L139.108 228.302C140.44 229.382 142.404 229.166 143.465 227.822L209.389 144.259C210.424 142.943 212.324 142.704 213.659 143.712L342.534 241.356C343.849 242.35 345.715 242.135 346.763 240.865L486.755 71.2224C487.834 69.9128 489.776 69.7279 491.087 70.8107L516.934 92.1642C518.925 93.8083 521.936 92.4135 521.97 89.8323L523.061 3.7819C523.084 1.8213 521.292 0.33568 519.369 0.731887Z" fill="#B8E4F2"/>
</svg>
