<svg width="53" height="53" viewBox="0 0 53 53" fill="none" xmlns="http://www.w3.org/2000/svg">
<g id="icon-park-solid:personal-privacy">
<g id="Group">
<path id="Vector" d="M26.4954 19.9948C30.6836 19.9948 34.0788 16.5996 34.0788 12.4115C34.0788 8.2233 30.6836 4.82812 26.4954 4.82812C22.3073 4.82812 18.9121 8.2233 18.9121 12.4115C18.9121 16.5996 22.3073 19.9948 26.4954 19.9948Z" fill="#019ED1" stroke="#019ED1" stroke-width="4.33333" stroke-linecap="round" stroke-linejoin="round"/>
<path id="Vector_2" d="M4.82812 44.9115C4.82812 35.338 13.5587 27.5781 24.3281 27.5781" stroke="#019ED1" stroke-width="3" stroke-linecap="round" stroke-linejoin="round"/>
<path id="Vector_3" d="M29.7441 34.0781H44.9108V44.9115H29.7441V34.0781Z" fill="#019ED1" stroke="#019ED1" stroke-width="3" stroke-linecap="round" stroke-linejoin="round"/>
<path id="Vector_4" d="M40.5781 34.0781V30.8281C40.5781 29.9662 40.2357 29.1395 39.6262 28.53C39.0167 27.9205 38.1901 27.5781 37.3281 27.5781C36.4662 27.5781 35.6395 27.9205 35.03 28.53C34.4205 29.1395 34.0781 29.9662 34.0781 30.8281V34.0781" stroke="#019ED1" stroke-width="3" stroke-linecap="round" stroke-linejoin="round"/>
</g>
</g>
</svg>
