<svg width="125" height="19" viewBox="0 0 125 19" fill="none" xmlns="http://www.w3.org/2000/svg">
<path d="M9.98948 0L13.0762 6.25342L19.979 7.26236L14.9842 12.1272L16.163 19L9.98948 15.7534L3.81598 19L4.99474 12.1272L0 7.26236L6.90273 6.25342L9.98948 0Z" fill="#FEB623"/>
<path d="M36.303 0L39.3897 6.25342L46.2924 7.26236L41.2977 12.1272L42.4765 19L36.303 15.7534L30.1295 19L31.3082 12.1272L26.3135 7.26236L33.2162 6.25342L36.303 0Z" fill="#FEB623"/>
<path d="M62.6155 0L65.7022 6.25342L72.6049 7.26236L67.6102 12.1272L68.789 19L62.6155 15.7534L56.442 19L57.6207 12.1272L52.626 7.26236L59.5287 6.25342L62.6155 0Z" fill="#FEB623"/>
<path d="M88.9289 0L92.0157 6.25342L98.9184 7.26236L93.9237 12.1272L95.1024 19L88.9289 15.7534L82.7554 19L83.9342 12.1272L78.9395 7.26236L85.8422 6.25342L88.9289 0Z" fill="#FEB623"/>
<path d="M114.929 0L118.016 6.25342L124.918 7.26236L119.924 12.1272L121.102 19L114.929 15.7534L108.755 19L109.934 12.1272L104.939 7.26236L111.842 6.25342L114.929 0Z" fill="#FEB623"/>
</svg>
