<svg width="53" height="53" viewBox="0 0 53 53" fill="none" xmlns="http://www.w3.org/2000/svg">
<g id="material-symbols:connect-without-contact-rounded" clip-path="url(#clip0_222_182)">
<path id="Vector" d="M39.4941 52.4942C38.7575 52.4942 38.1404 52.2446 37.6429 51.7454C37.1455 51.2462 36.8959 50.6291 36.8941 49.8942V46.6442C35.2041 46.0808 33.6875 45.2254 32.3441 44.078C31.0008 42.9305 29.9391 41.5542 29.1591 39.9492C28.8125 39.2992 28.8125 38.6492 29.1591 37.9992C29.5058 37.3492 30.0258 36.8725 30.7191 36.5692C31.3258 36.3092 31.9325 36.3308 32.5391 36.6342C33.1458 36.9375 33.6225 37.3925 33.9691 37.9992C34.6625 39.2558 35.6158 40.2525 36.8291 40.9892C38.0425 41.7258 39.3641 42.0942 40.7941 42.0942H48.5941C49.6775 42.0942 50.5987 42.4738 51.3579 43.233C52.1171 43.9922 52.4959 44.9126 52.4941 45.9942V49.8942C52.4941 50.6308 52.2445 51.2488 51.7453 51.748C51.2461 52.2472 50.6291 52.4959 49.8941 52.4942H39.4941ZM44.6941 39.4942C43.2641 39.4942 42.0404 38.9854 41.0229 37.968C40.0055 36.9505 39.4959 35.7259 39.4941 34.2942C39.4924 32.8624 40.002 31.6387 41.0229 30.623C42.0439 29.6072 43.2676 29.0976 44.6941 29.0942C46.1207 29.0907 47.3453 29.6003 48.3679 30.623C49.3906 31.6456 49.8993 32.8694 49.8941 34.2942C49.8889 35.719 49.3802 36.9436 48.3679 37.968C47.3557 38.9924 46.1311 39.5011 44.6941 39.4942ZM3.09414 23.8942C2.35747 23.8942 1.74041 23.6446 1.24294 23.1454C0.745474 22.6462 0.495874 22.0291 0.494141 21.2942V17.3942C0.494141 16.3108 0.87374 15.3904 1.63294 14.633C2.39214 13.8755 3.31254 13.4959 4.39414 13.4942H12.1941C13.6241 13.4942 14.9458 13.1258 16.1591 12.3892C17.3725 11.6525 18.3258 10.6558 19.0191 9.39916C19.3658 8.79249 19.8425 8.30542 20.4491 7.93796C21.0558 7.57049 21.6841 7.49423 22.3341 7.70916C23.0708 7.92583 23.6341 8.33749 24.0241 8.94416C24.4141 9.55083 24.4791 10.1792 24.2191 10.8292C23.4825 12.6058 22.3991 14.1008 20.9691 15.3142C19.5391 16.5275 17.9141 17.4375 16.0941 18.0442V21.2942C16.0941 22.0308 15.8445 22.6488 15.3453 23.148C14.8461 23.6472 14.2291 23.8959 13.4941 23.8942H3.09414ZM8.29414 10.8942C6.86414 10.8942 5.64041 10.3854 4.62294 9.36796C3.60547 8.35049 3.09587 7.12589 3.09414 5.69416C3.09241 4.26242 3.60201 3.03869 4.62294 2.02296C5.64387 1.00722 6.86761 0.497625 8.29414 0.494158C9.72067 0.490692 10.9453 1.00029 11.9679 2.02296C12.9906 3.04563 13.4993 4.26936 13.4941 5.69416C13.4889 7.11896 12.9802 8.34356 11.9679 9.36796C10.9557 10.3924 9.73107 10.9011 8.29414 10.8942ZM21.2941 31.6942C20.5575 31.6942 19.9404 31.4446 19.4429 30.9454C18.9455 30.4462 18.6959 29.8291 18.6941 29.0942C18.6941 23.2875 20.7091 18.3692 24.7391 14.3392C28.7691 10.3092 33.6875 8.29416 39.4941 8.29416C40.2308 8.29416 40.8487 8.54289 41.3479 9.04036C41.8471 9.53783 42.0959 10.1558 42.0941 10.8942C42.0924 11.6326 41.8428 12.2505 41.3453 12.748C40.8479 13.2454 40.2308 13.4942 39.4941 13.4942C35.1608 13.4942 31.4775 15.0108 28.4441 18.0442C25.4108 21.0775 23.8941 24.7608 23.8941 29.0942C23.8941 29.8308 23.6445 30.4488 23.1453 30.948C22.6461 31.4472 22.0291 31.6959 21.2941 31.6942ZM31.6941 31.6942C30.9575 31.6942 30.3404 31.4446 29.8429 30.9454C29.3455 30.4462 29.0959 29.8291 29.0941 29.0942C29.0941 26.2342 30.1125 23.7858 32.1491 21.7492C34.1858 19.7125 36.6341 18.6942 39.4941 18.6942C40.2308 18.6942 40.8487 18.9438 41.3479 19.443C41.8471 19.9422 42.0959 20.5592 42.0941 21.2942C42.0924 22.0291 41.8428 22.647 41.3453 23.148C40.8479 23.6489 40.2308 23.8976 39.4941 23.8942C38.0641 23.8942 36.8404 24.4038 35.8229 25.423C34.8055 26.4422 34.2959 27.6659 34.2941 29.0942C34.2941 29.8308 34.0445 30.4488 33.5453 30.948C33.0461 31.4472 32.4291 31.6959 31.6941 31.6942Z" fill="#019ED1"/>
</g>
<defs>
<clipPath id="clip0_222_182">
<rect width="52" height="52" fill="white" transform="translate(0.494141 0.494141)"/>
</clipPath>
</defs>
</svg>
