<svg width="40" height="40" viewBox="0 0 40 40" fill="none" xmlns="http://www.w3.org/2000/svg">
<g id="material-symbols-light:web-traffic">
<g id="Layer 2">
<path id="Vector" d="M38.9978 16.2756C38.7439 16.0121 38.396 15.8599 38.0302 15.8521C37.6644 15.8443 37.3104 15.9816 37.0455 16.2341L36.4072 16.8433C35.9942 12.7775 34.0882 9.00935 31.0577 6.26761C28.0272 3.52586 24.0876 2.00538 20.0009 2.00025C16.4894 1.9807 13.0651 3.09389 10.2364 5.17461C7.40762 7.25534 5.32514 10.1927 4.29802 13.5507C4.23947 13.7258 4.21653 13.9109 4.23057 14.095C4.2446 14.2791 4.29532 14.4585 4.37973 14.6228C4.46415 14.787 4.58056 14.9327 4.72211 15.0512C4.86366 15.1698 5.0275 15.2588 5.20398 15.3131C5.38046 15.3674 5.56602 15.3859 5.74974 15.3674C5.93346 15.3489 6.11162 15.2939 6.27376 15.2055C6.43589 15.1172 6.57871 14.9973 6.69382 14.8529C6.80892 14.7085 6.89399 14.5426 6.94401 14.3649C7.79881 11.5738 9.53084 9.13284 11.883 7.40428C14.2351 5.67571 17.082 4.75172 20.0009 4.76948C23.2671 4.77504 26.4244 5.94495 28.9056 8.06907C31.3867 10.1932 33.0293 13.1324 33.5383 16.3587L33.4594 16.2756C33.1995 16.0419 32.861 15.9152 32.5116 15.9207C32.1621 15.9262 31.8278 16.0637 31.5755 16.3055C31.3232 16.5472 31.1716 16.8755 31.1512 17.2243C31.1308 17.5732 31.2431 17.9168 31.4655 18.1864L34.1101 20.9556C34.2373 21.0926 34.3916 21.2015 34.5633 21.2754C34.735 21.3493 34.9202 21.3866 35.107 21.3848C35.1491 21.3871 35.1912 21.3824 35.2317 21.371C35.5458 21.3557 35.8426 21.2221 36.0624 20.9971L38.9563 18.2279C39.2197 17.974 39.372 17.6262 39.3798 17.2603C39.3876 16.8945 39.2503 16.5405 38.9978 16.2756Z" fill="#001632"/>
<path id="Vector_2" d="M34.7866 24.7185C34.4357 24.6109 34.0564 24.647 33.7322 24.8189C33.4079 24.9908 33.1651 25.2844 33.0572 25.6351C32.2024 28.4262 30.4704 30.8672 28.1182 32.5957C25.7661 34.3243 22.9192 35.2483 20.0003 35.2305C16.7341 35.225 13.5768 34.055 11.0957 31.9309C8.61446 29.8068 6.97189 26.8676 6.46293 23.6413L6.54186 23.7244C6.66671 23.8563 6.81652 23.9622 6.9826 24.0358C7.14868 24.1094 7.32772 24.1492 7.50933 24.1531C7.69094 24.157 7.87151 24.1247 8.04057 24.0583C8.20963 23.9918 8.36381 23.8924 8.49416 23.7659C8.75764 23.512 8.90991 23.1642 8.91769 22.7983C8.92548 22.4325 8.78814 22.0785 8.5357 21.8136L5.89109 19.0444C5.7492 18.8929 5.57399 18.7765 5.37933 18.7044C5.18467 18.6323 4.9759 18.6065 4.76955 18.629C4.45537 18.6443 4.1586 18.7778 3.93878 19.0028L1.04494 21.7721C0.78146 22.026 0.629191 22.3738 0.621407 22.7397C0.613624 23.1055 0.750959 23.4595 1.0034 23.7244C1.12826 23.8563 1.27807 23.9622 1.44415 24.0358C1.61022 24.1094 1.78926 24.1492 1.97087 24.1531C2.15249 24.157 2.33306 24.1247 2.50212 24.0583C2.67118 23.9918 2.82535 23.8924 2.95571 23.7659L3.59401 23.1567C4.00726 27.2223 5.91341 30.9903 8.94384 33.732C11.9743 36.4737 15.9137 37.9943 20.0003 37.9997C23.5118 38.0193 26.9361 36.9061 29.7648 34.8254C32.5936 32.7447 34.6761 29.8073 35.7032 26.4493C35.7567 26.2755 35.7754 26.0928 35.7583 25.9117C35.7412 25.7307 35.6886 25.5548 35.6034 25.394C35.5183 25.2333 35.4024 25.0909 35.2622 24.975C35.1221 24.8591 34.9604 24.772 34.7866 24.7185Z" fill="#001632"/>
<g id="Group 427319711">
<path id="Vector_3" d="M20.0015 19.9991C22.2956 19.9991 24.1553 18.1393 24.1553 15.8452C24.1553 13.5511 22.2956 11.6914 20.0015 11.6914C17.7074 11.6914 15.8477 13.5511 15.8477 15.8452C15.8477 18.1393 17.7074 19.9991 20.0015 19.9991Z" fill="#019ED1"/>
<path id="Vector_4" d="M14.8219 20.4434C14.4572 20.7107 14.1229 21.0171 13.825 21.3572C13.2988 21.9243 12.9513 22.6337 12.8257 23.397C12.7001 24.1604 12.8021 24.9438 13.1188 25.6495C13.532 26.4859 14.1807 27.1833 14.9852 27.6556C15.7897 28.128 16.7148 28.3547 17.6465 28.308H23.088C23.8924 28.3063 24.6791 28.0719 25.353 27.6328C26.027 27.1938 26.5594 26.569 26.8859 25.8339C27.2125 25.0988 27.3192 24.2849 27.1931 23.4905C27.0671 22.6961 26.7137 21.9551 26.1757 21.3572C25.8777 21.0171 25.5434 20.7107 25.1788 20.4434C24.5292 21.1754 23.7319 21.7614 22.8392 22.1628C21.9466 22.5641 20.979 22.7716 20.0003 22.7716C19.0217 22.7716 18.0541 22.5641 17.1615 22.1628C16.2688 21.7614 15.4714 21.1754 14.8219 20.4434Z" fill="#019ED1"/>
</g>
</g>
</g>
</svg>
