<svg width="53" height="53" viewBox="0 0 53 53" fill="none" xmlns="http://www.w3.org/2000/svg">
<path d="M20.1573 31.3695L26.4948 27.5237L32.8323 31.3695L31.1531 24.1654L36.7865 19.2904L29.3656 18.6945L26.4948 11.8695L23.624 18.6945L16.2031 19.2904L21.8365 24.1654L20.1573 31.3695ZM4.82812 48.1612V9.16121C4.82812 7.96955 5.25279 6.94977 6.10213 6.10188C6.95146 5.25399 7.97124 4.82933 9.16146 4.82788H43.8281C45.0198 4.82788 46.0403 5.25255 46.8896 6.10188C47.739 6.95121 48.1629 7.97099 48.1615 9.16121V35.1612C48.1615 36.3529 47.7375 37.3734 46.8896 38.2227C46.0417 39.072 45.0212 39.496 43.8281 39.4945H13.4948L4.82812 48.1612ZM11.6531 35.1612H43.8281V9.16121H9.16146V37.5987L11.6531 35.1612Z" fill="#019ED1"/>
</svg>
