<svg width="49" height="49" viewBox="0 0 49 49" fill="none" xmlns="http://www.w3.org/2000/svg">
<path d="M10.8532 7.79644C9.97765 7.79585 9.11061 7.96643 8.30163 8.29841C7.49265 8.63039 6.7576 9.11725 6.13852 9.73117C5.51944 10.3451 5.02847 11.074 4.6937 11.8762C4.35892 12.6785 4.18691 13.5383 4.1875 14.4065C4.1875 19.3629 10.8532 26.681 10.8532 26.681C10.8532 26.681 17.5188 19.3629 17.5188 14.4065C17.5194 13.5383 17.3474 12.6785 17.0126 11.8762C16.6779 11.074 16.1869 10.3451 15.5678 9.73117C14.9487 9.11725 14.2137 8.63039 13.4047 8.29841C12.5957 7.96643 11.7287 7.79585 10.8532 7.79644ZM10.8532 16.7659C10.3826 16.7659 9.92256 16.6275 9.53129 16.3683C9.14001 16.109 8.83505 15.7405 8.65496 15.3094C8.47488 14.8783 8.42776 14.4038 8.51957 13.9462C8.61137 13.4885 8.83798 13.0681 9.17074 12.7381C9.50349 12.4081 9.92744 12.1834 10.389 12.0923C10.8505 12.0013 11.3289 12.048 11.7637 12.2266C12.1985 12.4052 12.5701 12.7076 12.8315 13.0956C13.0929 13.4836 13.2325 13.9398 13.2325 14.4065C13.2319 15.032 12.981 15.6318 12.5349 16.0742C12.0889 16.5166 11.484 16.7653 10.8532 16.7659ZM44.4456 22.8765V13.3322C44.4288 12.33 44.2752 11.3347 43.989 10.3734C43.2546 7.83266 41.6291 5.6356 39.4056 4.17815C37.1822 2.72071 34.5068 2.09874 31.8618 2.42433C29.2168 2.74992 26.776 4.00166 24.9794 5.95397C23.1827 7.90628 22.1483 10.4308 22.0626 13.0725V13.6229L22.0402 15.554V37.6437H22.0312V37.7347C22.0312 38.912 21.5596 40.0411 20.7201 40.8737C19.8806 41.7062 18.7419 42.1739 17.5546 42.1739C16.3674 42.1739 15.2287 41.7062 14.3892 40.8737C13.5497 40.0411 13.078 38.912 13.078 37.7347L13.087 37.6525H13.078V33.3398H8.60143V37.779H8.60591C8.60739 40.1326 9.55163 42.3891 11.2309 44.0523C12.9102 45.7155 15.1869 46.649 17.5602 46.6475C19.9336 46.6461 22.2091 45.7097 23.8863 44.0445C25.5635 42.3792 26.5049 40.1215 26.5034 37.7679H26.5079V35.5883H26.519V17.7736L26.5414 13.6229V13.0747C26.6052 11.3273 27.3593 9.67489 28.641 8.47404C29.9226 7.27318 31.629 6.62021 33.3918 6.65605C35.1547 6.69189 36.8327 7.41366 38.0636 8.66559C39.2945 9.91752 39.9797 11.5992 39.9712 13.3477V22.8366C39.1141 23.3175 38.4409 24.0655 38.0561 24.9644C37.6712 25.8634 37.5962 26.8632 37.8427 27.8087C38.0892 28.7543 38.6433 29.5927 39.4193 30.1942C40.1952 30.7956 41.1496 31.1263 42.1344 31.1351C43.1192 31.1439 44.0794 30.8302 44.8662 30.2428C45.6529 29.6553 46.2222 28.8268 46.4858 27.8859C46.7494 26.9449 46.6925 25.9439 46.3241 25.0382C45.9556 24.1325 45.2939 23.3727 44.4456 22.8765Z" fill="#019ED1"/>
</svg>
