<svg width="53" height="53" viewBox="0 0 53 53" fill="none" xmlns="http://www.w3.org/2000/svg">
<g id="solar:share-bold">
<path id="Vector" fill-rule="evenodd" clip-rule="evenodd" d="M30.7369 10.8073C30.7369 6.47787 34.2664 2.96487 38.6147 2.96487C39.647 2.96239 40.6698 3.16328 41.6245 3.55606C42.5792 3.94885 43.4472 4.52583 44.179 5.25407C44.9107 5.98231 45.4918 6.84755 45.8892 7.80039C46.2865 8.75322 46.4923 9.77499 46.4948 10.8073C46.4948 15.1392 42.9653 18.6522 38.6147 18.6522C37.5713 18.6535 36.5381 18.4474 35.5751 18.0458C34.6121 17.6443 33.7386 17.0554 33.0052 16.3133L22.0991 23.7393C22.4028 25.2523 22.2539 26.8212 21.6709 28.25L33.6287 36.1089C35.0371 34.9603 36.7996 34.3343 38.617 34.3371C39.6494 34.335 40.6721 34.5362 41.6267 34.9292C42.5813 35.3223 43.4491 35.8996 44.1806 36.628C44.9122 37.3565 45.493 38.2219 45.8901 39.1748C46.2872 40.1278 46.4926 41.1496 46.4948 42.182C46.4948 46.5115 42.9653 50.0245 38.6147 50.0245C36.5301 50.0288 34.5292 49.2051 33.0519 47.7344C31.5746 46.2637 30.7419 44.2665 30.7369 42.182C30.7351 41.0823 30.9669 39.9947 31.4169 38.9913L19.5532 31.2006C18.1165 32.4498 16.2758 33.1361 14.3719 33.1324C13.3395 33.1349 12.3166 32.9339 11.3619 32.541C10.4072 32.148 9.5392 31.5708 8.80762 30.8422C8.07604 30.1137 7.49517 29.2482 7.09822 28.2951C6.70126 27.342 6.49599 26.32 6.49414 25.2876C6.4963 24.2553 6.7018 23.2336 7.09889 22.2808C7.49599 21.328 8.0769 20.4627 8.80845 19.7345C9.54 19.0062 10.4079 18.4292 11.3624 18.0363C12.317 17.6435 13.3397 17.4426 14.3719 17.4451C16.8755 17.4451 19.1014 18.6051 20.5438 20.4122L31.1157 13.2144C30.8642 12.4369 30.7364 11.6246 30.7369 10.8073Z" fill="#019ED1"/>
</g>
</svg>
