<svg width="10" height="18" viewBox="0 0 10 18" fill="none" xmlns="http://www.w3.org/2000/svg">
<path fill-rule="evenodd" clip-rule="evenodd" d="M9.38241 0.00577721L7.04398 0.00195312C4.41683 0.00195312 2.71893 1.74077 2.71893 4.43178V6.47423H0.367878C0.164818 6.47423 0 6.63866 0 6.84134V9.80081C0 10.0035 0.164818 10.1679 0.367878 10.1679H2.71893V17.6348C2.71893 17.8379 2.88337 18.002 3.08681 18.002H6.15411C6.35755 18.002 6.52199 17.8375 6.52199 17.6348V10.1679H9.27113C9.47419 10.1679 9.63862 10.0035 9.63862 9.80081L9.63977 6.84134C9.63977 6.74421 9.60115 6.6509 9.53231 6.58207C9.4631 6.51285 9.36941 6.47423 9.27189 6.47423H6.52199V4.74268C6.52199 3.91056 6.72084 3.48838 7.8065 3.48838L9.38203 3.48761C9.58509 3.48761 9.74952 3.32318 9.74952 3.1205V0.37289C9.74952 0.170596 9.58509 0.00615962 9.38241 0.00577721Z" fill="#333333"/>
<path fill-rule="evenodd" clip-rule="evenodd" d="M9.38241 0.00577721L7.04398 0.00195312C4.41683 0.00195312 2.71893 1.74077 2.71893 4.43178V6.47423H0.367878C0.164818 6.47423 0 6.63866 0 6.84134V9.80081C0 10.0035 0.164818 10.1679 0.367878 10.1679H2.71893V17.6348C2.71893 17.8379 2.88337 18.002 3.08681 18.002H6.15411C6.35755 18.002 6.52199 17.8375 6.52199 17.6348V10.1679H9.27113C9.47419 10.1679 9.63862 10.0035 9.63862 9.80081L9.63977 6.84134C9.63977 6.74421 9.60115 6.6509 9.53231 6.58207C9.4631 6.51285 9.36941 6.47423 9.27189 6.47423H6.52199V4.74268C6.52199 3.91056 6.72084 3.48838 7.8065 3.48838L9.38203 3.48761C9.58509 3.48761 9.74952 3.32318 9.74952 3.1205V0.37289C9.74952 0.170596 9.58509 0.00615962 9.38241 0.00577721Z" fill="url(#paint0_linear_154_687)"/>
<path fill-rule="evenodd" clip-rule="evenodd" d="M9.38241 0.00577721L7.04398 0.00195312C4.41683 0.00195312 2.71893 1.74077 2.71893 4.43178V6.47423H0.367878C0.164818 6.47423 0 6.63866 0 6.84134V9.80081C0 10.0035 0.164818 10.1679 0.367878 10.1679H2.71893V17.6348C2.71893 17.8379 2.88337 18.002 3.08681 18.002H6.15411C6.35755 18.002 6.52199 17.8375 6.52199 17.6348V10.1679H9.27113C9.47419 10.1679 9.63862 10.0035 9.63862 9.80081L9.63977 6.84134C9.63977 6.74421 9.60115 6.6509 9.53231 6.58207C9.4631 6.51285 9.36941 6.47423 9.27189 6.47423H6.52199V4.74268C6.52199 3.91056 6.72084 3.48838 7.8065 3.48838L9.38203 3.48761C9.58509 3.48761 9.74952 3.32318 9.74952 3.1205V0.37289C9.74952 0.170596 9.58509 0.00615962 9.38241 0.00577721Z" fill="#B2B9C1"/>
<defs>
<linearGradient id="paint0_linear_154_687" x1="-2.0799" y1="-3.95805" x2="9.97162" y2="-3.14626" gradientUnits="userSpaceOnUse">
<stop stop-color="#D454A8"/>
<stop offset="1" stop-color="#9174DD"/>
</linearGradient>
</defs>
</svg>
