<svg width="22" height="18" viewBox="0 0 22 18" fill="none" xmlns="http://www.w3.org/2000/svg">
<path d="M6.80575 14.2537L2.21829 9.52209C2.09833 9.39685 1.95546 9.29741 1.79796 9.22955C1.64047 9.16168 1.47148 9.12674 1.30079 9.12674C1.13011 9.12674 0.961119 9.16168 0.803624 9.22955C0.646129 9.29741 0.503261 9.39685 0.383301 9.52209C0.261878 9.64581 0.165474 9.79317 0.0996772 9.95562C0.0338804 10.1181 0 10.2924 0 10.4684C0 10.6445 0.0338804 10.8188 0.0996772 10.9812C0.165474 11.1437 0.261878 11.291 0.383301 11.4147L5.87515 17.0792C6.38632 17.6064 7.21207 17.6064 7.72324 17.0792L21.6167 2.76261C21.7381 2.63888 21.8345 2.49152 21.9003 2.32908C21.9661 2.16663 22 1.99233 22 1.81628C22 1.64023 21.9661 1.46593 21.9003 1.30349C21.8345 1.14104 21.7381 0.993686 21.6167 0.869957C21.4967 0.744718 21.3539 0.645283 21.1964 0.577419C21.0389 0.509554 20.8699 0.474609 20.6992 0.474609C20.5285 0.474609 20.3595 0.509554 20.202 0.577419C20.0445 0.645283 19.9017 0.744718 19.7817 0.869957L6.80575 14.2537Z" fill="#019ED1"/>
</svg>
