<svg width="19" height="18" viewBox="0 0 19 18" fill="none" xmlns="http://www.w3.org/2000/svg">
<path d="M13.3569 0.00195312H5.81494C2.53894 0.00195312 0.585938 1.95495 0.585938 5.23095V12.764C0.585938 16.049 2.53894 18.002 5.81494 18.002H13.3479C16.6239 18.002 18.5769 16.049 18.5769 12.773V5.23095C18.5859 1.95495 16.6329 0.00195312 13.3569 0.00195312ZM9.58594 12.494C7.65994 12.494 6.09394 10.928 6.09394 9.00195C6.09394 7.07595 7.65994 5.50995 9.58594 5.50995C11.5119 5.50995 13.0779 7.07595 13.0779 9.00195C13.0779 10.928 11.5119 12.494 9.58594 12.494ZM14.9139 4.39395C14.8689 4.50195 14.8059 4.60095 14.7249 4.69095C14.6349 4.77195 14.5359 4.83495 14.4279 4.87995C14.3199 4.92495 14.2029 4.95195 14.0859 4.95195C13.8429 4.95195 13.6179 4.86195 13.4469 4.69095C13.3659 4.60095 13.3029 4.50195 13.2579 4.39395C13.2129 4.28595 13.1859 4.16895 13.1859 4.05195C13.1859 3.93495 13.2129 3.81795 13.2579 3.70995C13.3029 3.59295 13.3659 3.50295 13.4469 3.41295C13.6539 3.20595 13.9689 3.10695 14.2569 3.16995C14.3199 3.17895 14.3739 3.19695 14.4279 3.22395C14.4819 3.24195 14.5359 3.26895 14.5899 3.30495C14.6349 3.33195 14.6799 3.37695 14.7249 3.41295C14.8059 3.50295 14.8689 3.59295 14.9139 3.70995C14.9589 3.81795 14.9859 3.93495 14.9859 4.05195C14.9859 4.16895 14.9589 4.28595 14.9139 4.39395Z" fill="#B2B9C1"/>
</svg>
