<svg width="19" height="18" viewBox="0 0 19 18" fill="none" xmlns="http://www.w3.org/2000/svg">
<path d="M17.8581 0.00195312H1.29813C0.899875 0.00195312 0.578125 0.323703 0.578125 0.721953V17.282C0.578125 17.6802 0.899875 18.002 1.29813 18.002H17.8581C18.2564 18.002 18.5781 17.6802 18.5781 17.282V0.721953C18.5781 0.323703 18.2564 0.00195312 17.8581 0.00195312ZM5.91738 15.3402H3.24663V6.7497H5.91738V15.3402ZM4.58313 5.5752C4.27696 5.5752 3.97767 5.48441 3.7231 5.31432C3.46853 5.14422 3.27012 4.90246 3.15296 4.6196C3.0358 4.33674 3.00514 4.02549 3.06487 3.7252C3.1246 3.42492 3.27203 3.14909 3.48852 2.9326C3.70502 2.71611 3.98084 2.56868 4.28113 2.50895C4.58141 2.44922 4.89266 2.47987 5.17552 2.59704C5.45838 2.7142 5.70014 2.91261 5.87024 3.16718C6.04034 3.42175 6.13112 3.72104 6.13112 4.0272C6.12887 4.8822 5.43588 5.5752 4.58313 5.5752ZM15.9164 15.3402H13.2479V11.162C13.2479 10.1652 13.2299 8.88495 11.8596 8.88495C10.4714 8.88495 10.2576 9.96945 10.2576 11.09V15.3402H7.59138V6.7497H10.1519V7.9242H10.1879C10.5434 7.2492 11.4141 6.53595 12.7146 6.53595C15.4191 6.53595 15.9164 8.3157 15.9164 10.6287V15.3402Z" fill="#B2B9C1"/>
</svg>
